M48
; DRILL file {KiCad 7.0.10} date Fri Feb 23 15:38:17 2024
; FORMAT={-:-/ absolute / metric / decimal}
; #@! TF.CreationDate,2024-02-23T15:38:17-07:00
; #@! TF.GenerationSoftware,Kicad,Pcbnew,7.0.10
; #@! TF.FileFunction,MixedPlating,1,4
FMAT,2
METRIC
; #@! TA.AperFunction,Plated,PTH,ViaDrill
T1C0.305
; #@! TA.AperFunction,Plated,PTH,ComponentDrill
T2C1.016
%
G90
G05
T1
X137.6Y-20.84
X137.6Y-41.66
X137.6Y-62.48
X137.6Y-83.3
X137.6Y-104.12
X138.09Y-23.33
X138.09Y-25.92
X138.09Y-44.15
X138.09Y-46.74
X138.09Y-64.97
X138.09Y-67.56
X138.09Y-85.79
X138.09Y-88.38
X138.09Y-106.61
X138.09Y-109.2
X138.3Y-18.21
X138.3Y-39.03
X138.3Y-59.85
X138.3Y-80.67
X138.3Y-101.49
X138.48Y-20.9
X138.48Y-41.72
X138.48Y-62.54
X138.48Y-83.36
X138.48Y-104.18
X138.84Y-28.82
X138.84Y-49.64
X138.84Y-70.46
X138.84Y-91.28
X138.84Y-112.1
X139.13Y-23.34
X139.13Y-44.16
X139.13Y-64.98
X139.13Y-85.8
X139.13Y-106.62
X139.16Y-18.486
X139.16Y-39.306
X139.16Y-60.126
X139.16Y-80.946
X139.16Y-101.766
X139.43Y-21.02
X139.43Y-41.84
X139.43Y-62.66
X139.43Y-83.48
X139.43Y-104.3
X140.47Y-14.4
X140.47Y-35.22
X140.47Y-56.04
X140.47Y-76.86
X140.47Y-97.68
X141.035Y-18.49
X141.035Y-39.31
X141.035Y-60.13
X141.035Y-80.95
X141.035Y-101.77
X141.13Y-28.31
X141.13Y-49.13
X141.13Y-69.95
X141.13Y-90.77
X141.13Y-111.59
X141.22Y-23.96
X141.22Y-44.78
X141.22Y-65.6
X141.22Y-86.42
X141.22Y-107.24
X141.84Y-24.5
X141.84Y-45.32
X141.84Y-66.14
X141.84Y-86.96
X141.84Y-107.78
X141.99Y-20.86
X141.99Y-41.68
X141.99Y-62.5
X141.99Y-83.32
X141.99Y-104.14
X142.2Y-12.752
X142.2Y-33.572
X142.2Y-54.392
X142.2Y-75.212
X142.2Y-96.032
X142.399Y-28.849
X142.399Y-49.669
X142.399Y-70.489
X142.399Y-91.309
X142.399Y-112.129
X142.482Y-20.356
X142.482Y-41.176
X142.482Y-61.996
X142.482Y-82.816
X142.482Y-103.636
X142.49Y-21.36
X142.49Y-42.18
X142.49Y-63.0
X142.49Y-83.82
X142.49Y-104.64
X142.67Y-25.84
X142.67Y-46.66
X142.67Y-67.48
X142.67Y-88.3
X142.67Y-109.12
X142.68Y-25.18
X142.68Y-46.0
X142.68Y-66.82
X142.68Y-87.64
X142.68Y-108.46
X142.78Y-18.12
X142.78Y-38.94
X142.78Y-59.76
X142.78Y-80.58
X142.78Y-101.4
X142.98Y-20.86
X142.98Y-41.68
X142.98Y-62.5
X142.98Y-83.32
X142.98Y-104.14
X143.35Y-25.18
X143.35Y-25.85
X143.35Y-46.0
X143.35Y-46.67
X143.35Y-66.82
X143.35Y-67.49
X143.35Y-87.64
X143.35Y-88.31
X143.35Y-108.46
X143.35Y-109.13
X143.51Y-14.77
X143.51Y-35.59
X143.51Y-56.41
X143.51Y-77.23
X143.51Y-98.05
X143.69Y-12.752
X143.69Y-33.572
X143.69Y-54.392
X143.69Y-75.212
X143.69Y-96.032
X144.6Y-13.14
X144.6Y-33.96
X144.6Y-54.78
X144.6Y-75.6
X144.6Y-96.42
X145.31Y-18.24
X145.31Y-23.47
X145.31Y-39.06
X145.31Y-44.29
X145.31Y-59.88
X145.31Y-65.11
X145.31Y-80.7
X145.31Y-85.93
X145.31Y-101.52
X145.31Y-106.75
X146.39Y-28.4
X146.39Y-49.22
X146.39Y-70.04
X146.39Y-90.86
X146.39Y-111.68
X146.88Y-15.79
X146.88Y-36.61
X146.88Y-57.43
X146.88Y-78.25
X146.88Y-99.07
X147.09Y-25.97
X147.09Y-46.79
X147.09Y-67.61
X147.09Y-88.43
X147.09Y-109.25
X153.34Y-20.84
X153.34Y-41.66
X153.34Y-62.48
X153.34Y-83.3
X153.34Y-104.12
X153.83Y-23.33
X153.83Y-25.92
X153.83Y-44.15
X153.83Y-46.74
X153.83Y-64.97
X153.83Y-67.56
X153.83Y-85.79
X153.83Y-88.38
X153.83Y-106.61
X153.83Y-109.2
X154.04Y-18.21
X154.04Y-39.03
X154.04Y-59.85
X154.04Y-80.67
X154.04Y-101.49
X154.22Y-20.9
X154.22Y-41.72
X154.22Y-62.54
X154.22Y-83.36
X154.22Y-104.18
X154.58Y-28.82
X154.58Y-49.64
X154.58Y-70.46
X154.58Y-91.28
X154.58Y-112.1
X154.87Y-23.34
X154.87Y-44.16
X154.87Y-64.98
X154.87Y-85.8
X154.87Y-106.62
X154.9Y-18.486
X154.9Y-39.306
X154.9Y-60.126
X154.9Y-80.946
X154.9Y-101.766
X155.17Y-21.02
X155.17Y-41.84
X155.17Y-62.66
X155.17Y-83.48
X155.17Y-104.3
X156.21Y-14.4
X156.21Y-35.22
X156.21Y-56.04
X156.21Y-76.86
X156.21Y-97.68
X156.775Y-18.49
X156.775Y-39.31
X156.775Y-60.13
X156.775Y-80.95
X156.775Y-101.77
X156.87Y-28.31
X156.87Y-49.13
X156.87Y-69.95
X156.87Y-90.77
X156.87Y-111.59
X156.96Y-23.96
X156.96Y-44.78
X156.96Y-65.6
X156.96Y-86.42
X156.96Y-107.24
X157.58Y-24.5
X157.58Y-45.32
X157.58Y-66.14
X157.58Y-86.96
X157.58Y-107.78
X157.73Y-20.86
X157.73Y-41.68
X157.73Y-62.5
X157.73Y-83.32
X157.73Y-104.14
X157.94Y-12.752
X157.94Y-33.572
X157.94Y-54.392
X157.94Y-75.212
X157.94Y-96.032
X158.139Y-28.849
X158.139Y-49.669
X158.139Y-70.489
X158.139Y-91.309
X158.139Y-112.129
X158.222Y-20.356
X158.222Y-41.176
X158.222Y-61.996
X158.222Y-82.816
X158.222Y-103.636
X158.23Y-21.36
X158.23Y-42.18
X158.23Y-63.0
X158.23Y-83.82
X158.23Y-104.64
X158.41Y-25.84
X158.41Y-46.66
X158.41Y-67.48
X158.41Y-88.3
X158.41Y-109.12
X158.42Y-25.18
X158.42Y-46.0
X158.42Y-66.82
X158.42Y-87.64
X158.42Y-108.46
X158.52Y-18.12
X158.52Y-38.94
X158.52Y-59.76
X158.52Y-80.58
X158.52Y-101.4
X158.72Y-20.86
X158.72Y-41.68
X158.72Y-62.5
X158.72Y-83.32
X158.72Y-104.14
X159.09Y-25.18
X159.09Y-25.85
X159.09Y-46.0
X159.09Y-46.67
X159.09Y-66.82
X159.09Y-67.49
X159.09Y-87.64
X159.09Y-88.31
X159.09Y-108.46
X159.09Y-109.13
X159.25Y-14.77
X159.25Y-35.59
X159.25Y-56.41
X159.25Y-77.23
X159.25Y-98.05
X159.43Y-12.752
X159.43Y-33.572
X159.43Y-54.392
X159.43Y-75.212
X159.43Y-96.032
X160.34Y-13.14
X160.34Y-33.96
X160.34Y-54.78
X160.34Y-75.6
X160.34Y-96.42
X161.05Y-18.24
X161.05Y-23.47
X161.05Y-39.06
X161.05Y-44.29
X161.05Y-59.88
X161.05Y-65.11
X161.05Y-80.7
X161.05Y-85.93
X161.05Y-101.52
X161.05Y-106.75
X162.13Y-28.4
X162.13Y-49.22
X162.13Y-70.04
X162.13Y-90.86
X162.13Y-111.68
X162.62Y-15.79
X162.62Y-36.61
X162.62Y-57.43
X162.62Y-78.25
X162.62Y-99.07
X162.83Y-25.97
X162.83Y-46.79
X162.83Y-67.61
X162.83Y-88.43
X162.83Y-109.25
X169.08Y-20.84
X169.08Y-41.66
X169.08Y-62.48
X169.08Y-83.3
X169.08Y-104.12
X169.57Y-23.33
X169.57Y-25.92
X169.57Y-44.15
X169.57Y-46.74
X169.57Y-64.97
X169.57Y-67.56
X169.57Y-85.79
X169.57Y-88.38
X169.57Y-106.61
X169.57Y-109.2
X169.78Y-18.21
X169.78Y-39.03
X169.78Y-59.85
X169.78Y-80.67
X169.78Y-101.49
X169.96Y-20.9
X169.96Y-41.72
X169.96Y-62.54
X169.96Y-83.36
X169.96Y-104.18
X170.32Y-28.82
X170.32Y-49.64
X170.32Y-70.46
X170.32Y-91.28
X170.32Y-112.1
X170.61Y-23.34
X170.61Y-44.16
X170.61Y-64.98
X170.61Y-85.8
X170.61Y-106.62
X170.64Y-18.486
X170.64Y-39.306
X170.64Y-60.126
X170.64Y-80.946
X170.64Y-101.766
X170.91Y-21.02
X170.91Y-41.84
X170.91Y-62.66
X170.91Y-83.48
X170.91Y-104.3
X171.95Y-14.4
X171.95Y-35.22
X171.95Y-56.04
X171.95Y-76.86
X171.95Y-97.68
X172.515Y-18.49
X172.515Y-39.31
X172.515Y-60.13
X172.515Y-80.95
X172.515Y-101.77
X172.61Y-28.31
X172.61Y-49.13
X172.61Y-69.95
X172.61Y-90.77
X172.61Y-111.59
X172.7Y-23.96
X172.7Y-44.78
X172.7Y-65.6
X172.7Y-86.42
X172.7Y-107.24
X173.32Y-24.5
X173.32Y-45.32
X173.32Y-66.14
X173.32Y-86.96
X173.32Y-107.78
X173.47Y-20.86
X173.47Y-41.68
X173.47Y-62.5
X173.47Y-83.32
X173.47Y-104.14
X173.68Y-12.752
X173.68Y-33.572
X173.68Y-54.392
X173.68Y-75.212
X173.68Y-96.032
X173.879Y-28.849
X173.879Y-49.669
X173.879Y-70.489
X173.879Y-91.309
X173.879Y-112.129
X173.962Y-20.356
X173.962Y-41.176
X173.962Y-61.996
X173.962Y-82.816
X173.962Y-103.636
X173.97Y-21.36
X173.97Y-42.18
X173.97Y-63.0
X173.97Y-83.82
X173.97Y-104.64
X174.15Y-25.84
X174.15Y-46.66
X174.15Y-67.48
X174.15Y-88.3
X174.15Y-109.12
X174.16Y-25.18
X174.16Y-46.0
X174.16Y-66.82
X174.16Y-87.64
X174.16Y-108.46
X174.26Y-18.12
X174.26Y-38.94
X174.26Y-59.76
X174.26Y-80.58
X174.26Y-101.4
X174.46Y-20.86
X174.46Y-41.68
X174.46Y-62.5
X174.46Y-83.32
X174.46Y-104.14
X174.83Y-25.18
X174.83Y-25.85
X174.83Y-46.0
X174.83Y-46.67
X174.83Y-66.82
X174.83Y-67.49
X174.83Y-87.64
X174.83Y-88.31
X174.83Y-108.46
X174.83Y-109.13
X174.99Y-14.77
X174.99Y-35.59
X174.99Y-56.41
X174.99Y-77.23
X174.99Y-98.05
X175.17Y-12.752
X175.17Y-33.572
X175.17Y-54.392
X175.17Y-75.212
X175.17Y-96.032
X176.08Y-13.14
X176.08Y-33.96
X176.08Y-54.78
X176.08Y-75.6
X176.08Y-96.42
X176.79Y-18.24
X176.79Y-23.47
X176.79Y-39.06
X176.79Y-44.29
X176.79Y-59.88
X176.79Y-65.11
X176.79Y-80.7
X176.79Y-85.93
X176.79Y-101.52
X176.79Y-106.75
X177.87Y-28.4
X177.87Y-49.22
X177.87Y-70.04
X177.87Y-90.86
X177.87Y-111.68
X178.36Y-15.79
X178.36Y-36.61
X178.36Y-57.43
X178.36Y-78.25
X178.36Y-99.07
X178.57Y-25.97
X178.57Y-46.79
X178.57Y-67.61
X178.57Y-88.43
X178.57Y-109.25
X184.82Y-20.84
X184.82Y-41.66
X184.82Y-62.48
X184.82Y-83.3
X184.82Y-104.12
X185.31Y-23.33
X185.31Y-25.92
X185.31Y-44.15
X185.31Y-46.74
X185.31Y-64.97
X185.31Y-67.56
X185.31Y-85.79
X185.31Y-88.38
X185.31Y-106.61
X185.31Y-109.2
X185.52Y-18.21
X185.52Y-39.03
X185.52Y-59.85
X185.52Y-80.67
X185.52Y-101.49
X185.7Y-20.9
X185.7Y-41.72
X185.7Y-62.54
X185.7Y-83.36
X185.7Y-104.18
X186.06Y-28.82
X186.06Y-49.64
X186.06Y-70.46
X186.06Y-91.28
X186.06Y-112.1
X186.35Y-23.34
X186.35Y-44.16
X186.35Y-64.98
X186.35Y-85.8
X186.35Y-106.62
X186.38Y-18.486
X186.38Y-39.306
X186.38Y-60.126
X186.38Y-80.946
X186.38Y-101.766
X186.65Y-21.02
X186.65Y-41.84
X186.65Y-62.66
X186.65Y-83.48
X186.65Y-104.3
X187.69Y-14.4
X187.69Y-35.22
X187.69Y-56.04
X187.69Y-76.86
X187.69Y-97.68
X188.255Y-18.49
X188.255Y-39.31
X188.255Y-60.13
X188.255Y-80.95
X188.255Y-101.77
X188.35Y-28.31
X188.35Y-49.13
X188.35Y-69.95
X188.35Y-90.77
X188.35Y-111.59
X188.44Y-23.96
X188.44Y-44.78
X188.44Y-65.6
X188.44Y-86.42
X188.44Y-107.24
X189.06Y-24.5
X189.06Y-45.32
X189.06Y-66.14
X189.06Y-86.96
X189.06Y-107.78
X189.21Y-20.86
X189.21Y-41.68
X189.21Y-62.5
X189.21Y-83.32
X189.21Y-104.14
X189.42Y-12.752
X189.42Y-33.572
X189.42Y-54.392
X189.42Y-75.212
X189.42Y-96.032
X189.619Y-28.849
X189.619Y-49.669
X189.619Y-70.489
X189.619Y-91.309
X189.619Y-112.129
X189.702Y-20.356
X189.702Y-41.176
X189.702Y-61.996
X189.702Y-82.816
X189.702Y-103.636
X189.71Y-21.36
X189.71Y-42.18
X189.71Y-63.0
X189.71Y-83.82
X189.71Y-104.64
X189.89Y-25.84
X189.89Y-46.66
X189.89Y-67.48
X189.89Y-88.3
X189.89Y-109.12
X189.9Y-25.18
X189.9Y-46.0
X189.9Y-66.82
X189.9Y-87.64
X189.9Y-108.46
X190.0Y-18.12
X190.0Y-38.94
X190.0Y-59.76
X190.0Y-80.58
X190.0Y-101.4
X190.2Y-20.86
X190.2Y-41.68
X190.2Y-62.5
X190.2Y-83.32
X190.2Y-104.14
X190.57Y-25.18
X190.57Y-25.85
X190.57Y-46.0
X190.57Y-46.67
X190.57Y-66.82
X190.57Y-67.49
X190.57Y-87.64
X190.57Y-88.31
X190.57Y-108.46
X190.57Y-109.13
X190.73Y-14.77
X190.73Y-35.59
X190.73Y-56.41
X190.73Y-77.23
X190.73Y-98.05
X190.91Y-12.752
X190.91Y-33.572
X190.91Y-54.392
X190.91Y-75.212
X190.91Y-96.032
X191.82Y-13.14
X191.82Y-33.96
X191.82Y-54.78
X191.82Y-75.6
X191.82Y-96.42
X192.53Y-18.24
X192.53Y-23.47
X192.53Y-39.06
X192.53Y-44.29
X192.53Y-59.88
X192.53Y-65.11
X192.53Y-80.7
X192.53Y-85.93
X192.53Y-101.52
X192.53Y-106.75
X193.61Y-28.4
X193.61Y-49.22
X193.61Y-70.04
X193.61Y-90.86
X193.61Y-111.68
X194.1Y-15.79
X194.1Y-36.61
X194.1Y-57.43
X194.1Y-78.25
X194.1Y-99.07
X194.31Y-25.97
X194.31Y-46.79
X194.31Y-67.61
X194.31Y-88.43
X194.31Y-109.25
X200.56Y-20.84
X200.56Y-41.66
X200.56Y-62.48
X200.56Y-83.3
X200.56Y-104.12
X201.05Y-23.33
X201.05Y-25.92
X201.05Y-44.15
X201.05Y-46.74
X201.05Y-64.97
X201.05Y-67.56
X201.05Y-85.79
X201.05Y-88.38
X201.05Y-106.61
X201.05Y-109.2
X201.26Y-18.21
X201.26Y-39.03
X201.26Y-59.85
X201.26Y-80.67
X201.26Y-101.49
X201.44Y-20.9
X201.44Y-41.72
X201.44Y-62.54
X201.44Y-83.36
X201.44Y-104.18
X201.8Y-28.82
X201.8Y-49.64
X201.8Y-70.46
X201.8Y-91.28
X201.8Y-112.1
X202.09Y-23.34
X202.09Y-44.16
X202.09Y-64.98
X202.09Y-85.8
X202.09Y-106.62
X202.12Y-18.486
X202.12Y-39.306
X202.12Y-60.126
X202.12Y-80.946
X202.12Y-101.766
X202.39Y-21.02
X202.39Y-41.84
X202.39Y-62.66
X202.39Y-83.48
X202.39Y-104.3
X203.43Y-14.4
X203.43Y-35.22
X203.43Y-56.04
X203.43Y-76.86
X203.43Y-97.68
X203.995Y-18.49
X203.995Y-39.31
X203.995Y-60.13
X203.995Y-80.95
X203.995Y-101.77
X204.09Y-28.31
X204.09Y-49.13
X204.09Y-69.95
X204.09Y-90.77
X204.09Y-111.59
X204.18Y-23.96
X204.18Y-44.78
X204.18Y-65.6
X204.18Y-86.42
X204.18Y-107.24
X204.8Y-24.5
X204.8Y-45.32
X204.8Y-66.14
X204.8Y-86.96
X204.8Y-107.78
X204.95Y-20.86
X204.95Y-41.68
X204.95Y-62.5
X204.95Y-83.32
X204.95Y-104.14
X205.16Y-12.752
X205.16Y-33.572
X205.16Y-54.392
X205.16Y-75.212
X205.16Y-96.032
X205.359Y-28.849
X205.359Y-49.669
X205.359Y-70.489
X205.359Y-91.309
X205.359Y-112.129
X205.442Y-20.356
X205.442Y-41.176
X205.442Y-61.996
X205.442Y-82.816
X205.442Y-103.636
X205.45Y-21.36
X205.45Y-42.18
X205.45Y-63.0
X205.45Y-83.82
X205.45Y-104.64
X205.63Y-25.84
X205.63Y-46.66
X205.63Y-67.48
X205.63Y-88.3
X205.63Y-109.12
X205.64Y-25.18
X205.64Y-46.0
X205.64Y-66.82
X205.64Y-87.64
X205.64Y-108.46
X205.74Y-18.12
X205.74Y-38.94
X205.74Y-59.76
X205.74Y-80.58
X205.74Y-101.4
X205.94Y-20.86
X205.94Y-41.68
X205.94Y-62.5
X205.94Y-83.32
X205.94Y-104.14
X206.31Y-25.18
X206.31Y-25.85
X206.31Y-46.0
X206.31Y-46.67
X206.31Y-66.82
X206.31Y-67.49
X206.31Y-87.64
X206.31Y-88.31
X206.31Y-108.46
X206.31Y-109.13
X206.47Y-14.77
X206.47Y-35.59
X206.47Y-56.41
X206.47Y-77.23
X206.47Y-98.05
X206.65Y-12.752
X206.65Y-33.572
X206.65Y-54.392
X206.65Y-75.212
X206.65Y-96.032
X207.56Y-13.14
X207.56Y-33.96
X207.56Y-54.78
X207.56Y-75.6
X207.56Y-96.42
X208.27Y-18.24
X208.27Y-23.47
X208.27Y-39.06
X208.27Y-44.29
X208.27Y-59.88
X208.27Y-65.11
X208.27Y-80.7
X208.27Y-85.93
X208.27Y-101.52
X208.27Y-106.75
X209.35Y-28.4
X209.35Y-49.22
X209.35Y-70.04
X209.35Y-90.86
X209.35Y-111.68
X209.84Y-15.79
X209.84Y-36.61
X209.84Y-57.43
X209.84Y-78.25
X209.84Y-99.07
X210.05Y-25.97
X210.05Y-46.79
X210.05Y-67.61
X210.05Y-88.43
X210.05Y-109.25
X216.3Y-20.84
X216.3Y-41.66
X216.3Y-62.48
X216.3Y-83.3
X216.3Y-104.12
X216.79Y-23.33
X216.79Y-25.92
X216.79Y-44.15
X216.79Y-46.74
X216.79Y-64.97
X216.79Y-67.56
X216.79Y-85.79
X216.79Y-88.38
X216.79Y-106.61
X216.79Y-109.2
X217.0Y-18.21
X217.0Y-39.03
X217.0Y-59.85
X217.0Y-80.67
X217.0Y-101.49
X217.18Y-20.9
X217.18Y-41.72
X217.18Y-62.54
X217.18Y-83.36
X217.18Y-104.18
X217.54Y-28.82
X217.54Y-49.64
X217.54Y-70.46
X217.54Y-91.28
X217.54Y-112.1
X217.83Y-23.34
X217.83Y-44.16
X217.83Y-64.98
X217.83Y-85.8
X217.83Y-106.62
X217.86Y-18.486
X217.86Y-39.306
X217.86Y-60.126
X217.86Y-80.946
X217.86Y-101.766
X218.13Y-21.02
X218.13Y-41.84
X218.13Y-62.66
X218.13Y-83.48
X218.13Y-104.3
X219.17Y-14.4
X219.17Y-35.22
X219.17Y-56.04
X219.17Y-76.86
X219.17Y-97.68
X219.735Y-18.49
X219.735Y-39.31
X219.735Y-60.13
X219.735Y-80.95
X219.735Y-101.77
X219.83Y-28.31
X219.83Y-49.13
X219.83Y-69.95
X219.83Y-90.77
X219.83Y-111.59
X219.92Y-23.96
X219.92Y-44.78
X219.92Y-65.6
X219.92Y-86.42
X219.92Y-107.24
X220.54Y-24.5
X220.54Y-45.32
X220.54Y-66.14
X220.54Y-86.96
X220.54Y-107.78
X220.69Y-20.86
X220.69Y-41.68
X220.69Y-62.5
X220.69Y-83.32
X220.69Y-104.14
X220.9Y-12.752
X220.9Y-33.572
X220.9Y-54.392
X220.9Y-75.212
X220.9Y-96.032
X221.099Y-28.849
X221.099Y-49.669
X221.099Y-70.489
X221.099Y-91.309
X221.099Y-112.129
X221.182Y-20.356
X221.182Y-41.176
X221.182Y-61.996
X221.182Y-82.816
X221.182Y-103.636
X221.19Y-21.36
X221.19Y-42.18
X221.19Y-63.0
X221.19Y-83.82
X221.19Y-104.64
X221.37Y-25.84
X221.37Y-46.66
X221.37Y-67.48
X221.37Y-88.3
X221.37Y-109.12
X221.38Y-25.18
X221.38Y-46.0
X221.38Y-66.82
X221.38Y-87.64
X221.38Y-108.46
X221.48Y-18.12
X221.48Y-38.94
X221.48Y-59.76
X221.48Y-80.58
X221.48Y-101.4
X221.68Y-20.86
X221.68Y-41.68
X221.68Y-62.5
X221.68Y-83.32
X221.68Y-104.14
X222.05Y-25.18
X222.05Y-25.85
X222.05Y-46.0
X222.05Y-46.67
X222.05Y-66.82
X222.05Y-67.49
X222.05Y-87.64
X222.05Y-88.31
X222.05Y-108.46
X222.05Y-109.13
X222.21Y-14.77
X222.21Y-35.59
X222.21Y-56.41
X222.21Y-77.23
X222.21Y-98.05
X222.39Y-12.752
X222.39Y-33.572
X222.39Y-54.392
X222.39Y-75.212
X222.39Y-96.032
X223.3Y-13.14
X223.3Y-33.96
X223.3Y-54.78
X223.3Y-75.6
X223.3Y-96.42
X224.01Y-18.24
X224.01Y-23.47
X224.01Y-39.06
X224.01Y-44.29
X224.01Y-59.88
X224.01Y-65.11
X224.01Y-80.7
X224.01Y-85.93
X224.01Y-101.52
X224.01Y-106.75
X225.09Y-28.4
X225.09Y-49.22
X225.09Y-70.04
X225.09Y-90.86
X225.09Y-111.68
X225.58Y-15.79
X225.58Y-36.61
X225.58Y-57.43
X225.58Y-78.25
X225.58Y-99.07
X225.79Y-25.97
X225.79Y-46.79
X225.79Y-67.61
X225.79Y-88.43
X225.79Y-109.25
T2
X135.89Y-11.97
X135.89Y-14.51
X135.89Y-17.05
X135.89Y-19.59
X135.89Y-22.13
X135.89Y-24.67
X135.89Y-27.21
X135.89Y-29.75
X135.89Y-32.79
X135.89Y-35.33
X135.89Y-37.87
X135.89Y-40.41
X135.89Y-42.95
X135.89Y-45.49
X135.89Y-48.03
X135.89Y-50.57
X135.89Y-53.61
X135.89Y-56.15
X135.89Y-58.69
X135.89Y-61.23
X135.89Y-63.77
X135.89Y-66.31
X135.89Y-68.85
X135.89Y-71.39
X135.89Y-74.43
X135.89Y-76.97
X135.89Y-79.51
X135.89Y-82.05
X135.89Y-84.59
X135.89Y-87.13
X135.89Y-89.67
X135.89Y-92.21
X135.89Y-95.25
X135.89Y-97.79
X135.89Y-100.33
X135.89Y-102.87
X135.89Y-105.41
X135.89Y-107.95
X135.89Y-110.49
X135.89Y-113.03
X148.59Y-11.97
X148.59Y-14.51
X148.59Y-17.05
X148.59Y-19.59
X148.59Y-22.13
X148.59Y-24.67
X148.59Y-27.21
X148.59Y-29.75
X148.59Y-32.79
X148.59Y-35.33
X148.59Y-37.87
X148.59Y-40.41
X148.59Y-42.95
X148.59Y-45.49
X148.59Y-48.03
X148.59Y-50.57
X148.59Y-53.61
X148.59Y-56.15
X148.59Y-58.69
X148.59Y-61.23
X148.59Y-63.77
X148.59Y-66.31
X148.59Y-68.85
X148.59Y-71.39
X148.59Y-74.43
X148.59Y-76.97
X148.59Y-79.51
X148.59Y-82.05
X148.59Y-84.59
X148.59Y-87.13
X148.59Y-89.67
X148.59Y-92.21
X148.59Y-95.25
X148.59Y-97.79
X148.59Y-100.33
X148.59Y-102.87
X148.59Y-105.41
X148.59Y-107.95
X148.59Y-110.49
X148.59Y-113.03
X151.63Y-11.97
X151.63Y-14.51
X151.63Y-17.05
X151.63Y-19.59
X151.63Y-22.13
X151.63Y-24.67
X151.63Y-27.21
X151.63Y-29.75
X151.63Y-32.79
X151.63Y-35.33
X151.63Y-37.87
X151.63Y-40.41
X151.63Y-42.95
X151.63Y-45.49
X151.63Y-48.03
X151.63Y-50.57
X151.63Y-53.61
X151.63Y-56.15
X151.63Y-58.69
X151.63Y-61.23
X151.63Y-63.77
X151.63Y-66.31
X151.63Y-68.85
X151.63Y-71.39
X151.63Y-74.43
X151.63Y-76.97
X151.63Y-79.51
X151.63Y-82.05
X151.63Y-84.59
X151.63Y-87.13
X151.63Y-89.67
X151.63Y-92.21
X151.63Y-95.25
X151.63Y-97.79
X151.63Y-100.33
X151.63Y-102.87
X151.63Y-105.41
X151.63Y-107.95
X151.63Y-110.49
X151.63Y-113.03
X164.33Y-11.97
X164.33Y-14.51
X164.33Y-17.05
X164.33Y-19.59
X164.33Y-22.13
X164.33Y-24.67
X164.33Y-27.21
X164.33Y-29.75
X164.33Y-32.79
X164.33Y-35.33
X164.33Y-37.87
X164.33Y-40.41
X164.33Y-42.95
X164.33Y-45.49
X164.33Y-48.03
X164.33Y-50.57
X164.33Y-53.61
X164.33Y-56.15
X164.33Y-58.69
X164.33Y-61.23
X164.33Y-63.77
X164.33Y-66.31
X164.33Y-68.85
X164.33Y-71.39
X164.33Y-74.43
X164.33Y-76.97
X164.33Y-79.51
X164.33Y-82.05
X164.33Y-84.59
X164.33Y-87.13
X164.33Y-89.67
X164.33Y-92.21
X164.33Y-95.25
X164.33Y-97.79
X164.33Y-100.33
X164.33Y-102.87
X164.33Y-105.41
X164.33Y-107.95
X164.33Y-110.49
X164.33Y-113.03
X167.37Y-11.97
X167.37Y-14.51
X167.37Y-17.05
X167.37Y-19.59
X167.37Y-22.13
X167.37Y-24.67
X167.37Y-27.21
X167.37Y-29.75
X167.37Y-32.79
X167.37Y-35.33
X167.37Y-37.87
X167.37Y-40.41
X167.37Y-42.95
X167.37Y-45.49
X167.37Y-48.03
X167.37Y-50.57
X167.37Y-53.61
X167.37Y-56.15
X167.37Y-58.69
X167.37Y-61.23
X167.37Y-63.77
X167.37Y-66.31
X167.37Y-68.85
X167.37Y-71.39
X167.37Y-74.43
X167.37Y-76.97
X167.37Y-79.51
X167.37Y-82.05
X167.37Y-84.59
X167.37Y-87.13
X167.37Y-89.67
X167.37Y-92.21
X167.37Y-95.25
X167.37Y-97.79
X167.37Y-100.33
X167.37Y-102.87
X167.37Y-105.41
X167.37Y-107.95
X167.37Y-110.49
X167.37Y-113.03
X180.07Y-11.97
X180.07Y-14.51
X180.07Y-17.05
X180.07Y-19.59
X180.07Y-22.13
X180.07Y-24.67
X180.07Y-27.21
X180.07Y-29.75
X180.07Y-32.79
X180.07Y-35.33
X180.07Y-37.87
X180.07Y-40.41
X180.07Y-42.95
X180.07Y-45.49
X180.07Y-48.03
X180.07Y-50.57
X180.07Y-53.61
X180.07Y-56.15
X180.07Y-58.69
X180.07Y-61.23
X180.07Y-63.77
X180.07Y-66.31
X180.07Y-68.85
X180.07Y-71.39
X180.07Y-74.43
X180.07Y-76.97
X180.07Y-79.51
X180.07Y-82.05
X180.07Y-84.59
X180.07Y-87.13
X180.07Y-89.67
X180.07Y-92.21
X180.07Y-95.25
X180.07Y-97.79
X180.07Y-100.33
X180.07Y-102.87
X180.07Y-105.41
X180.07Y-107.95
X180.07Y-110.49
X180.07Y-113.03
X183.11Y-11.97
X183.11Y-14.51
X183.11Y-17.05
X183.11Y-19.59
X183.11Y-22.13
X183.11Y-24.67
X183.11Y-27.21
X183.11Y-29.75
X183.11Y-32.79
X183.11Y-35.33
X183.11Y-37.87
X183.11Y-40.41
X183.11Y-42.95
X183.11Y-45.49
X183.11Y-48.03
X183.11Y-50.57
X183.11Y-53.61
X183.11Y-56.15
X183.11Y-58.69
X183.11Y-61.23
X183.11Y-63.77
X183.11Y-66.31
X183.11Y-68.85
X183.11Y-71.39
X183.11Y-74.43
X183.11Y-76.97
X183.11Y-79.51
X183.11Y-82.05
X183.11Y-84.59
X183.11Y-87.13
X183.11Y-89.67
X183.11Y-92.21
X183.11Y-95.25
X183.11Y-97.79
X183.11Y-100.33
X183.11Y-102.87
X183.11Y-105.41
X183.11Y-107.95
X183.11Y-110.49
X183.11Y-113.03
X195.81Y-11.97
X195.81Y-14.51
X195.81Y-17.05
X195.81Y-19.59
X195.81Y-22.13
X195.81Y-24.67
X195.81Y-27.21
X195.81Y-29.75
X195.81Y-32.79
X195.81Y-35.33
X195.81Y-37.87
X195.81Y-40.41
X195.81Y-42.95
X195.81Y-45.49
X195.81Y-48.03
X195.81Y-50.57
X195.81Y-53.61
X195.81Y-56.15
X195.81Y-58.69
X195.81Y-61.23
X195.81Y-63.77
X195.81Y-66.31
X195.81Y-68.85
X195.81Y-71.39
X195.81Y-74.43
X195.81Y-76.97
X195.81Y-79.51
X195.81Y-82.05
X195.81Y-84.59
X195.81Y-87.13
X195.81Y-89.67
X195.81Y-92.21
X195.81Y-95.25
X195.81Y-97.79
X195.81Y-100.33
X195.81Y-102.87
X195.81Y-105.41
X195.81Y-107.95
X195.81Y-110.49
X195.81Y-113.03
X198.85Y-11.97
X198.85Y-14.51
X198.85Y-17.05
X198.85Y-19.59
X198.85Y-22.13
X198.85Y-24.67
X198.85Y-27.21
X198.85Y-29.75
X198.85Y-32.79
X198.85Y-35.33
X198.85Y-37.87
X198.85Y-40.41
X198.85Y-42.95
X198.85Y-45.49
X198.85Y-48.03
X198.85Y-50.57
X198.85Y-53.61
X198.85Y-56.15
X198.85Y-58.69
X198.85Y-61.23
X198.85Y-63.77
X198.85Y-66.31
X198.85Y-68.85
X198.85Y-71.39
X198.85Y-74.43
X198.85Y-76.97
X198.85Y-79.51
X198.85Y-82.05
X198.85Y-84.59
X198.85Y-87.13
X198.85Y-89.67
X198.85Y-92.21
X198.85Y-95.25
X198.85Y-97.79
X198.85Y-100.33
X198.85Y-102.87
X198.85Y-105.41
X198.85Y-107.95
X198.85Y-110.49
X198.85Y-113.03
X211.55Y-11.97
X211.55Y-14.51
X211.55Y-17.05
X211.55Y-19.59
X211.55Y-22.13
X211.55Y-24.67
X211.55Y-27.21
X211.55Y-29.75
X211.55Y-32.79
X211.55Y-35.33
X211.55Y-37.87
X211.55Y-40.41
X211.55Y-42.95
X211.55Y-45.49
X211.55Y-48.03
X211.55Y-50.57
X211.55Y-53.61
X211.55Y-56.15
X211.55Y-58.69
X211.55Y-61.23
X211.55Y-63.77
X211.55Y-66.31
X211.55Y-68.85
X211.55Y-71.39
X211.55Y-74.43
X211.55Y-76.97
X211.55Y-79.51
X211.55Y-82.05
X211.55Y-84.59
X211.55Y-87.13
X211.55Y-89.67
X211.55Y-92.21
X211.55Y-95.25
X211.55Y-97.79
X211.55Y-100.33
X211.55Y-102.87
X211.55Y-105.41
X211.55Y-107.95
X211.55Y-110.49
X211.55Y-113.03
X214.59Y-11.97
X214.59Y-14.51
X214.59Y-17.05
X214.59Y-19.59
X214.59Y-22.13
X214.59Y-24.67
X214.59Y-27.21
X214.59Y-29.75
X214.59Y-32.79
X214.59Y-35.33
X214.59Y-37.87
X214.59Y-40.41
X214.59Y-42.95
X214.59Y-45.49
X214.59Y-48.03
X214.59Y-50.57
X214.59Y-53.61
X214.59Y-56.15
X214.59Y-58.69
X214.59Y-61.23
X214.59Y-63.77
X214.59Y-66.31
X214.59Y-68.85
X214.59Y-71.39
X214.59Y-74.43
X214.59Y-76.97
X214.59Y-79.51
X214.59Y-82.05
X214.59Y-84.59
X214.59Y-87.13
X214.59Y-89.67
X214.59Y-92.21
X214.59Y-95.25
X214.59Y-97.79
X214.59Y-100.33
X214.59Y-102.87
X214.59Y-105.41
X214.59Y-107.95
X214.59Y-110.49
X214.59Y-113.03
X227.29Y-11.97
X227.29Y-14.51
X227.29Y-17.05
X227.29Y-19.59
X227.29Y-22.13
X227.29Y-24.67
X227.29Y-27.21
X227.29Y-29.75
X227.29Y-32.79
X227.29Y-35.33
X227.29Y-37.87
X227.29Y-40.41
X227.29Y-42.95
X227.29Y-45.49
X227.29Y-48.03
X227.29Y-50.57
X227.29Y-53.61
X227.29Y-56.15
X227.29Y-58.69
X227.29Y-61.23
X227.29Y-63.77
X227.29Y-66.31
X227.29Y-68.85
X227.29Y-71.39
X227.29Y-74.43
X227.29Y-76.97
X227.29Y-79.51
X227.29Y-82.05
X227.29Y-84.59
X227.29Y-87.13
X227.29Y-89.67
X227.29Y-92.21
X227.29Y-95.25
X227.29Y-97.79
X227.29Y-100.33
X227.29Y-102.87
X227.29Y-105.41
X227.29Y-107.95
X227.29Y-110.49
X227.29Y-113.03
M30
