%TF.GenerationSoftware,KiCad,Pcbnew,7.0.10*%
%TF.CreationDate,2024-02-23T15:38:17-07:00*%
%TF.ProjectId,SparkFun_Stepper_Motor_Breakout_TC78H670FTG_panelized,53706172-6b46-4756-9e5f-537465707065,rev?*%
%TF.SameCoordinates,Original*%
%TF.FileFunction,Soldermask,Top*%
%TF.FilePolarity,Negative*%
%FSLAX46Y46*%
G04 Gerber Fmt 4.6, Leading zero omitted, Abs format (unit mm)*
G04 Created by KiCad (PCBNEW 7.0.10) date 2024-02-23 15:38:17*
%MOMM*%
%LPD*%
G01*
G04 APERTURE LIST*
G04 Aperture macros list*
%AMRoundRect*
0 Rectangle with rounded corners*
0 $1 Rounding radius*
0 $2 $3 $4 $5 $6 $7 $8 $9 X,Y pos of 4 corners*
0 Add a 4 corners polygon primitive as box body*
4,1,4,$2,$3,$4,$5,$6,$7,$8,$9,$2,$3,0*
0 Add four circle primitives for the rounded corners*
1,1,$1+$1,$2,$3*
1,1,$1+$1,$4,$5*
1,1,$1+$1,$6,$7*
1,1,$1+$1,$8,$9*
0 Add four rect primitives between the rounded corners*
20,1,$1+$1,$2,$3,$4,$5,0*
20,1,$1+$1,$4,$5,$6,$7,0*
20,1,$1+$1,$6,$7,$8,$9,0*
20,1,$1+$1,$8,$9,$2,$3,0*%
%AMOutline5P*
0 Free polygon, 5 corners , with rotation*
0 The origin of the aperture is its center*
0 number of corners: always 5*
0 $1 to $10 corner X, Y*
0 $11 Rotation angle, in degrees counterclockwise*
0 create outline with 5 corners*
4,1,5,$1,$2,$3,$4,$5,$6,$7,$8,$9,$10,$1,$2,$11*%
%AMOutline6P*
0 Free polygon, 6 corners , with rotation*
0 The origin of the aperture is its center*
0 number of corners: always 6*
0 $1 to $12 corner X, Y*
0 $13 Rotation angle, in degrees counterclockwise*
0 create outline with 6 corners*
4,1,6,$1,$2,$3,$4,$5,$6,$7,$8,$9,$10,$11,$12,$1,$2,$13*%
%AMOutline7P*
0 Free polygon, 7 corners , with rotation*
0 The origin of the aperture is its center*
0 number of corners: always 7*
0 $1 to $14 corner X, Y*
0 $15 Rotation angle, in degrees counterclockwise*
0 create outline with 7 corners*
4,1,7,$1,$2,$3,$4,$5,$6,$7,$8,$9,$10,$11,$12,$13,$14,$1,$2,$15*%
%AMOutline8P*
0 Free polygon, 8 corners , with rotation*
0 The origin of the aperture is its center*
0 number of corners: always 8*
0 $1 to $16 corner X, Y*
0 $17 Rotation angle, in degrees counterclockwise*
0 create outline with 8 corners*
4,1,8,$1,$2,$3,$4,$5,$6,$7,$8,$9,$10,$11,$12,$13,$14,$15,$16,$1,$2,$17*%
G04 Aperture macros list end*
%ADD10C,3.000000*%
%ADD11RoundRect,0.200000X0.200000X0.275000X-0.200000X0.275000X-0.200000X-0.275000X0.200000X-0.275000X0*%
%ADD12RoundRect,0.225000X-0.225000X-0.250000X0.225000X-0.250000X0.225000X0.250000X-0.225000X0.250000X0*%
%ADD13RoundRect,0.200000X-0.200000X-0.275000X0.200000X-0.275000X0.200000X0.275000X-0.200000X0.275000X0*%
%ADD14R,1.090000X1.600000*%
%ADD15R,1.600000X1.600000*%
%ADD16RoundRect,0.063750X0.063750X0.361250X-0.063750X0.361250X-0.063750X-0.361250X0.063750X-0.361250X0*%
%ADD17RoundRect,0.063750X0.361250X-0.063750X0.361250X0.063750X-0.361250X0.063750X-0.361250X-0.063750X0*%
%ADD18Outline5P,-0.820000X0.820000X0.574000X0.820000X0.820000X0.574000X0.820000X-0.820000X-0.820000X-0.820000X180.000000*%
%ADD19C,2.082800*%
%ADD20C,1.000000*%
G04 APERTURE END LIST*
D10*
%TO.C,*%
X136620000Y-7025000D03*
%TD*%
D11*
%TO.C,R4*%
X142915000Y-95130000D03*
X141265000Y-95130000D03*
%TD*%
%TO.C,R4*%
X142915000Y-74310000D03*
X141265000Y-74310000D03*
%TD*%
%TO.C,R4*%
X142915000Y-53490000D03*
X141265000Y-53490000D03*
%TD*%
%TO.C,R4*%
X158655000Y-74310000D03*
X157005000Y-74310000D03*
%TD*%
%TO.C,R4*%
X158655000Y-53490000D03*
X157005000Y-53490000D03*
%TD*%
%TO.C,R4*%
X142915000Y-32670000D03*
X141265000Y-32670000D03*
%TD*%
%TO.C,R4*%
X158655000Y-32670000D03*
X157005000Y-32670000D03*
%TD*%
%TO.C,R4*%
X158655000Y-11850000D03*
X157005000Y-11850000D03*
%TD*%
%TO.C,R4*%
X174395000Y-95130000D03*
X172745000Y-95130000D03*
%TD*%
%TO.C,R4*%
X158655000Y-95130000D03*
X157005000Y-95130000D03*
%TD*%
%TO.C,R4*%
X142915000Y-11850000D03*
X141265000Y-11850000D03*
%TD*%
%TO.C,R4*%
X221615000Y-32670000D03*
X219965000Y-32670000D03*
%TD*%
%TO.C,R4*%
X174395000Y-11850000D03*
X172745000Y-11850000D03*
%TD*%
%TO.C,R4*%
X205875000Y-74310000D03*
X204225000Y-74310000D03*
%TD*%
%TO.C,R4*%
X174395000Y-53490000D03*
X172745000Y-53490000D03*
%TD*%
%TO.C,R4*%
X174395000Y-32670000D03*
X172745000Y-32670000D03*
%TD*%
%TO.C,R4*%
X190135000Y-95130000D03*
X188485000Y-95130000D03*
%TD*%
%TO.C,R4*%
X221615000Y-95130000D03*
X219965000Y-95130000D03*
%TD*%
%TO.C,R4*%
X221615000Y-53490000D03*
X219965000Y-53490000D03*
%TD*%
%TO.C,R4*%
X221615000Y-11850000D03*
X219965000Y-11850000D03*
%TD*%
%TO.C,R4*%
X190135000Y-53490000D03*
X188485000Y-53490000D03*
%TD*%
%TO.C,R4*%
X190135000Y-11850000D03*
X188485000Y-11850000D03*
%TD*%
%TO.C,R4*%
X174395000Y-74310000D03*
X172745000Y-74310000D03*
%TD*%
%TO.C,R4*%
X190135000Y-74310000D03*
X188485000Y-74310000D03*
%TD*%
%TO.C,R4*%
X205875000Y-95130000D03*
X204225000Y-95130000D03*
%TD*%
%TO.C,R4*%
X190135000Y-32670000D03*
X188485000Y-32670000D03*
%TD*%
%TO.C,R4*%
X205875000Y-32670000D03*
X204225000Y-32670000D03*
%TD*%
%TO.C,R4*%
X205875000Y-53490000D03*
X204225000Y-53490000D03*
%TD*%
%TO.C,R4*%
X205875000Y-11850000D03*
X204225000Y-11850000D03*
%TD*%
%TO.C,R4*%
X221615000Y-74310000D03*
X219965000Y-74310000D03*
%TD*%
D12*
%TO.C,C3*%
X144465000Y-95110000D03*
X146015000Y-95110000D03*
%TD*%
%TO.C,C3*%
X144465000Y-74290000D03*
X146015000Y-74290000D03*
%TD*%
%TO.C,C3*%
X144465000Y-53470000D03*
X146015000Y-53470000D03*
%TD*%
%TO.C,C3*%
X207425000Y-74290000D03*
X208975000Y-74290000D03*
%TD*%
%TO.C,C3*%
X207425000Y-32650000D03*
X208975000Y-32650000D03*
%TD*%
%TO.C,C3*%
X191685000Y-95110000D03*
X193235000Y-95110000D03*
%TD*%
%TO.C,C3*%
X144465000Y-11830000D03*
X146015000Y-11830000D03*
%TD*%
%TO.C,C3*%
X160205000Y-11830000D03*
X161755000Y-11830000D03*
%TD*%
%TO.C,C3*%
X207425000Y-95110000D03*
X208975000Y-95110000D03*
%TD*%
%TO.C,C3*%
X191685000Y-53470000D03*
X193235000Y-53470000D03*
%TD*%
%TO.C,C3*%
X191685000Y-32650000D03*
X193235000Y-32650000D03*
%TD*%
%TO.C,C3*%
X175945000Y-74290000D03*
X177495000Y-74290000D03*
%TD*%
%TO.C,C3*%
X175945000Y-95110000D03*
X177495000Y-95110000D03*
%TD*%
%TO.C,C3*%
X175945000Y-32650000D03*
X177495000Y-32650000D03*
%TD*%
%TO.C,C3*%
X207425000Y-53470000D03*
X208975000Y-53470000D03*
%TD*%
%TO.C,C3*%
X160205000Y-32650000D03*
X161755000Y-32650000D03*
%TD*%
%TO.C,C3*%
X144465000Y-32650000D03*
X146015000Y-32650000D03*
%TD*%
%TO.C,C3*%
X160205000Y-74290000D03*
X161755000Y-74290000D03*
%TD*%
%TO.C,C3*%
X160205000Y-53470000D03*
X161755000Y-53470000D03*
%TD*%
%TO.C,C3*%
X175945000Y-53470000D03*
X177495000Y-53470000D03*
%TD*%
%TO.C,C3*%
X191685000Y-74290000D03*
X193235000Y-74290000D03*
%TD*%
%TO.C,C3*%
X160205000Y-95110000D03*
X161755000Y-95110000D03*
%TD*%
%TO.C,C3*%
X191685000Y-11830000D03*
X193235000Y-11830000D03*
%TD*%
%TO.C,C3*%
X175945000Y-11830000D03*
X177495000Y-11830000D03*
%TD*%
%TO.C,C3*%
X207425000Y-11830000D03*
X208975000Y-11830000D03*
%TD*%
%TO.C,C3*%
X223165000Y-11830000D03*
X224715000Y-11830000D03*
%TD*%
%TO.C,C3*%
X223165000Y-95110000D03*
X224715000Y-95110000D03*
%TD*%
%TO.C,C3*%
X223165000Y-53470000D03*
X224715000Y-53470000D03*
%TD*%
%TO.C,C3*%
X223165000Y-32650000D03*
X224715000Y-32650000D03*
%TD*%
%TO.C,C3*%
X223165000Y-74290000D03*
X224715000Y-74290000D03*
%TD*%
D11*
%TO.C,R7*%
X139665000Y-111440000D03*
X138015000Y-111440000D03*
%TD*%
%TO.C,R7*%
X155405000Y-111440000D03*
X153755000Y-111440000D03*
%TD*%
%TO.C,R7*%
X155405000Y-48980000D03*
X153755000Y-48980000D03*
%TD*%
%TO.C,R7*%
X139665000Y-90620000D03*
X138015000Y-90620000D03*
%TD*%
%TO.C,R7*%
X155405000Y-28160000D03*
X153755000Y-28160000D03*
%TD*%
%TO.C,R7*%
X171145000Y-111440000D03*
X169495000Y-111440000D03*
%TD*%
%TO.C,R7*%
X171145000Y-90620000D03*
X169495000Y-90620000D03*
%TD*%
%TO.C,R7*%
X171145000Y-69800000D03*
X169495000Y-69800000D03*
%TD*%
%TO.C,R7*%
X171145000Y-28160000D03*
X169495000Y-28160000D03*
%TD*%
%TO.C,R7*%
X171145000Y-48980000D03*
X169495000Y-48980000D03*
%TD*%
%TO.C,R7*%
X186885000Y-111440000D03*
X185235000Y-111440000D03*
%TD*%
%TO.C,R7*%
X155405000Y-69800000D03*
X153755000Y-69800000D03*
%TD*%
%TO.C,R7*%
X155405000Y-90620000D03*
X153755000Y-90620000D03*
%TD*%
%TO.C,R7*%
X139665000Y-69800000D03*
X138015000Y-69800000D03*
%TD*%
%TO.C,R7*%
X139665000Y-48980000D03*
X138015000Y-48980000D03*
%TD*%
%TO.C,R7*%
X139665000Y-28160000D03*
X138015000Y-28160000D03*
%TD*%
%TO.C,R7*%
X202625000Y-48980000D03*
X200975000Y-48980000D03*
%TD*%
%TO.C,R7*%
X202625000Y-69800000D03*
X200975000Y-69800000D03*
%TD*%
%TO.C,R7*%
X186885000Y-90620000D03*
X185235000Y-90620000D03*
%TD*%
%TO.C,R7*%
X186885000Y-28160000D03*
X185235000Y-28160000D03*
%TD*%
%TO.C,R7*%
X202625000Y-28160000D03*
X200975000Y-28160000D03*
%TD*%
%TO.C,R7*%
X218365000Y-28160000D03*
X216715000Y-28160000D03*
%TD*%
%TO.C,R7*%
X202625000Y-111440000D03*
X200975000Y-111440000D03*
%TD*%
%TO.C,R7*%
X218365000Y-111440000D03*
X216715000Y-111440000D03*
%TD*%
%TO.C,R7*%
X218365000Y-69800000D03*
X216715000Y-69800000D03*
%TD*%
%TO.C,R7*%
X218365000Y-90620000D03*
X216715000Y-90620000D03*
%TD*%
%TO.C,R7*%
X202625000Y-90620000D03*
X200975000Y-90620000D03*
%TD*%
%TO.C,R7*%
X186885000Y-69800000D03*
X185235000Y-69800000D03*
%TD*%
%TO.C,R7*%
X218365000Y-48980000D03*
X216715000Y-48980000D03*
%TD*%
%TO.C,R7*%
X186885000Y-48980000D03*
X185235000Y-48980000D03*
%TD*%
D12*
%TO.C,C2*%
X143435000Y-100500000D03*
X144985000Y-100500000D03*
%TD*%
%TO.C,C2*%
X143435000Y-38040000D03*
X144985000Y-38040000D03*
%TD*%
%TO.C,C2*%
X159175000Y-100500000D03*
X160725000Y-100500000D03*
%TD*%
%TO.C,C2*%
X159175000Y-38040000D03*
X160725000Y-38040000D03*
%TD*%
%TO.C,C2*%
X174915000Y-58860000D03*
X176465000Y-58860000D03*
%TD*%
%TO.C,C2*%
X190655000Y-79680000D03*
X192205000Y-79680000D03*
%TD*%
%TO.C,C2*%
X174915000Y-17220000D03*
X176465000Y-17220000D03*
%TD*%
%TO.C,C2*%
X206395000Y-100500000D03*
X207945000Y-100500000D03*
%TD*%
%TO.C,C2*%
X174915000Y-79680000D03*
X176465000Y-79680000D03*
%TD*%
%TO.C,C2*%
X143435000Y-79680000D03*
X144985000Y-79680000D03*
%TD*%
%TO.C,C2*%
X143435000Y-58860000D03*
X144985000Y-58860000D03*
%TD*%
%TO.C,C2*%
X143435000Y-17220000D03*
X144985000Y-17220000D03*
%TD*%
%TO.C,C2*%
X159175000Y-79680000D03*
X160725000Y-79680000D03*
%TD*%
%TO.C,C2*%
X159175000Y-58860000D03*
X160725000Y-58860000D03*
%TD*%
%TO.C,C2*%
X159175000Y-17220000D03*
X160725000Y-17220000D03*
%TD*%
%TO.C,C2*%
X174915000Y-100500000D03*
X176465000Y-100500000D03*
%TD*%
%TO.C,C2*%
X174915000Y-38040000D03*
X176465000Y-38040000D03*
%TD*%
%TO.C,C2*%
X190655000Y-100500000D03*
X192205000Y-100500000D03*
%TD*%
%TO.C,C2*%
X190655000Y-58860000D03*
X192205000Y-58860000D03*
%TD*%
%TO.C,C2*%
X190655000Y-38040000D03*
X192205000Y-38040000D03*
%TD*%
%TO.C,C2*%
X190655000Y-17220000D03*
X192205000Y-17220000D03*
%TD*%
%TO.C,C2*%
X206395000Y-58860000D03*
X207945000Y-58860000D03*
%TD*%
%TO.C,C2*%
X206395000Y-38040000D03*
X207945000Y-38040000D03*
%TD*%
%TO.C,C2*%
X206395000Y-79680000D03*
X207945000Y-79680000D03*
%TD*%
%TO.C,C2*%
X206395000Y-17220000D03*
X207945000Y-17220000D03*
%TD*%
%TO.C,C2*%
X222135000Y-100500000D03*
X223685000Y-100500000D03*
%TD*%
%TO.C,C2*%
X222135000Y-79680000D03*
X223685000Y-79680000D03*
%TD*%
%TO.C,C2*%
X222135000Y-58860000D03*
X223685000Y-58860000D03*
%TD*%
%TO.C,C2*%
X222135000Y-38040000D03*
X223685000Y-38040000D03*
%TD*%
%TO.C,C2*%
X222135000Y-17220000D03*
X223685000Y-17220000D03*
%TD*%
D13*
%TO.C,R9*%
X141285000Y-96800000D03*
X142935000Y-96800000D03*
%TD*%
%TO.C,R9*%
X172765000Y-55160000D03*
X174415000Y-55160000D03*
%TD*%
%TO.C,R9*%
X172765000Y-96800000D03*
X174415000Y-96800000D03*
%TD*%
%TO.C,R9*%
X141285000Y-75980000D03*
X142935000Y-75980000D03*
%TD*%
%TO.C,R9*%
X141285000Y-34340000D03*
X142935000Y-34340000D03*
%TD*%
%TO.C,R9*%
X219985000Y-75980000D03*
X221635000Y-75980000D03*
%TD*%
%TO.C,R9*%
X157025000Y-34340000D03*
X158675000Y-34340000D03*
%TD*%
%TO.C,R9*%
X188505000Y-96800000D03*
X190155000Y-96800000D03*
%TD*%
%TO.C,R9*%
X141285000Y-13520000D03*
X142935000Y-13520000D03*
%TD*%
%TO.C,R9*%
X157025000Y-75980000D03*
X158675000Y-75980000D03*
%TD*%
%TO.C,R9*%
X172765000Y-75980000D03*
X174415000Y-75980000D03*
%TD*%
%TO.C,R9*%
X141285000Y-55160000D03*
X142935000Y-55160000D03*
%TD*%
%TO.C,R9*%
X172765000Y-13520000D03*
X174415000Y-13520000D03*
%TD*%
%TO.C,R9*%
X157025000Y-96800000D03*
X158675000Y-96800000D03*
%TD*%
%TO.C,R9*%
X172765000Y-34340000D03*
X174415000Y-34340000D03*
%TD*%
%TO.C,R9*%
X188505000Y-75980000D03*
X190155000Y-75980000D03*
%TD*%
%TO.C,R9*%
X188505000Y-13520000D03*
X190155000Y-13520000D03*
%TD*%
%TO.C,R9*%
X204245000Y-96800000D03*
X205895000Y-96800000D03*
%TD*%
%TO.C,R9*%
X204245000Y-75980000D03*
X205895000Y-75980000D03*
%TD*%
%TO.C,R9*%
X188505000Y-55160000D03*
X190155000Y-55160000D03*
%TD*%
%TO.C,R9*%
X157025000Y-13520000D03*
X158675000Y-13520000D03*
%TD*%
%TO.C,R9*%
X188505000Y-34340000D03*
X190155000Y-34340000D03*
%TD*%
%TO.C,R9*%
X157025000Y-55160000D03*
X158675000Y-55160000D03*
%TD*%
%TO.C,R9*%
X204245000Y-55160000D03*
X205895000Y-55160000D03*
%TD*%
%TO.C,R9*%
X204245000Y-13520000D03*
X205895000Y-13520000D03*
%TD*%
%TO.C,R9*%
X204245000Y-34340000D03*
X205895000Y-34340000D03*
%TD*%
%TO.C,R9*%
X219985000Y-96800000D03*
X221635000Y-96800000D03*
%TD*%
%TO.C,R9*%
X219985000Y-55160000D03*
X221635000Y-55160000D03*
%TD*%
%TO.C,R9*%
X219985000Y-34340000D03*
X221635000Y-34340000D03*
%TD*%
%TO.C,R9*%
X219985000Y-13520000D03*
X221635000Y-13520000D03*
%TD*%
D11*
%TO.C,R10*%
X141915000Y-100500000D03*
X140265000Y-100500000D03*
%TD*%
%TO.C,R10*%
X157655000Y-79680000D03*
X156005000Y-79680000D03*
%TD*%
%TO.C,R10*%
X157655000Y-38040000D03*
X156005000Y-38040000D03*
%TD*%
%TO.C,R10*%
X157655000Y-58860000D03*
X156005000Y-58860000D03*
%TD*%
%TO.C,R10*%
X157655000Y-17220000D03*
X156005000Y-17220000D03*
%TD*%
%TO.C,R10*%
X173395000Y-79680000D03*
X171745000Y-79680000D03*
%TD*%
%TO.C,R10*%
X173395000Y-58860000D03*
X171745000Y-58860000D03*
%TD*%
%TO.C,R10*%
X141915000Y-79680000D03*
X140265000Y-79680000D03*
%TD*%
%TO.C,R10*%
X141915000Y-58860000D03*
X140265000Y-58860000D03*
%TD*%
%TO.C,R10*%
X173395000Y-100500000D03*
X171745000Y-100500000D03*
%TD*%
%TO.C,R10*%
X141915000Y-38040000D03*
X140265000Y-38040000D03*
%TD*%
%TO.C,R10*%
X173395000Y-38040000D03*
X171745000Y-38040000D03*
%TD*%
%TO.C,R10*%
X173395000Y-17220000D03*
X171745000Y-17220000D03*
%TD*%
%TO.C,R10*%
X157655000Y-100500000D03*
X156005000Y-100500000D03*
%TD*%
%TO.C,R10*%
X141915000Y-17220000D03*
X140265000Y-17220000D03*
%TD*%
%TO.C,R10*%
X189135000Y-38040000D03*
X187485000Y-38040000D03*
%TD*%
%TO.C,R10*%
X220615000Y-38040000D03*
X218965000Y-38040000D03*
%TD*%
%TO.C,R10*%
X189135000Y-17220000D03*
X187485000Y-17220000D03*
%TD*%
%TO.C,R10*%
X204875000Y-79680000D03*
X203225000Y-79680000D03*
%TD*%
%TO.C,R10*%
X189135000Y-58860000D03*
X187485000Y-58860000D03*
%TD*%
%TO.C,R10*%
X204875000Y-100500000D03*
X203225000Y-100500000D03*
%TD*%
%TO.C,R10*%
X204875000Y-58860000D03*
X203225000Y-58860000D03*
%TD*%
%TO.C,R10*%
X220615000Y-58860000D03*
X218965000Y-58860000D03*
%TD*%
%TO.C,R10*%
X204875000Y-17220000D03*
X203225000Y-17220000D03*
%TD*%
%TO.C,R10*%
X189135000Y-79680000D03*
X187485000Y-79680000D03*
%TD*%
%TO.C,R10*%
X220615000Y-100500000D03*
X218965000Y-100500000D03*
%TD*%
%TO.C,R10*%
X220615000Y-79680000D03*
X218965000Y-79680000D03*
%TD*%
%TO.C,R10*%
X189135000Y-100500000D03*
X187485000Y-100500000D03*
%TD*%
%TO.C,R10*%
X204875000Y-38040000D03*
X203225000Y-38040000D03*
%TD*%
%TO.C,R10*%
X220615000Y-17220000D03*
X218965000Y-17220000D03*
%TD*%
%TO.C,R8*%
X139725000Y-96800000D03*
X138075000Y-96800000D03*
%TD*%
%TO.C,R8*%
X139725000Y-75980000D03*
X138075000Y-75980000D03*
%TD*%
%TO.C,R8*%
X171205000Y-55160000D03*
X169555000Y-55160000D03*
%TD*%
%TO.C,R8*%
X139725000Y-13520000D03*
X138075000Y-13520000D03*
%TD*%
%TO.C,R8*%
X155465000Y-96800000D03*
X153815000Y-96800000D03*
%TD*%
%TO.C,R8*%
X186945000Y-13520000D03*
X185295000Y-13520000D03*
%TD*%
%TO.C,R8*%
X139725000Y-55160000D03*
X138075000Y-55160000D03*
%TD*%
%TO.C,R8*%
X155465000Y-13520000D03*
X153815000Y-13520000D03*
%TD*%
%TO.C,R8*%
X155465000Y-75980000D03*
X153815000Y-75980000D03*
%TD*%
%TO.C,R8*%
X171205000Y-96800000D03*
X169555000Y-96800000D03*
%TD*%
%TO.C,R8*%
X171205000Y-75980000D03*
X169555000Y-75980000D03*
%TD*%
%TO.C,R8*%
X155465000Y-55160000D03*
X153815000Y-55160000D03*
%TD*%
%TO.C,R8*%
X139725000Y-34340000D03*
X138075000Y-34340000D03*
%TD*%
%TO.C,R8*%
X155465000Y-34340000D03*
X153815000Y-34340000D03*
%TD*%
%TO.C,R8*%
X171205000Y-34340000D03*
X169555000Y-34340000D03*
%TD*%
%TO.C,R8*%
X171205000Y-13520000D03*
X169555000Y-13520000D03*
%TD*%
%TO.C,R8*%
X186945000Y-96800000D03*
X185295000Y-96800000D03*
%TD*%
%TO.C,R8*%
X186945000Y-75980000D03*
X185295000Y-75980000D03*
%TD*%
%TO.C,R8*%
X186945000Y-55160000D03*
X185295000Y-55160000D03*
%TD*%
%TO.C,R8*%
X186945000Y-34340000D03*
X185295000Y-34340000D03*
%TD*%
%TO.C,R8*%
X202685000Y-96800000D03*
X201035000Y-96800000D03*
%TD*%
%TO.C,R8*%
X202685000Y-75980000D03*
X201035000Y-75980000D03*
%TD*%
%TO.C,R8*%
X202685000Y-34340000D03*
X201035000Y-34340000D03*
%TD*%
%TO.C,R8*%
X218425000Y-96800000D03*
X216775000Y-96800000D03*
%TD*%
%TO.C,R8*%
X218425000Y-75980000D03*
X216775000Y-75980000D03*
%TD*%
%TO.C,R8*%
X218425000Y-55160000D03*
X216775000Y-55160000D03*
%TD*%
%TO.C,R8*%
X202685000Y-55160000D03*
X201035000Y-55160000D03*
%TD*%
%TO.C,R8*%
X202685000Y-13520000D03*
X201035000Y-13520000D03*
%TD*%
%TO.C,R8*%
X218425000Y-34340000D03*
X216775000Y-34340000D03*
%TD*%
%TO.C,R8*%
X218425000Y-13520000D03*
X216775000Y-13520000D03*
%TD*%
D12*
%TO.C,C1*%
X142745000Y-107210000D03*
X144295000Y-107210000D03*
%TD*%
%TO.C,C1*%
X158485000Y-44750000D03*
X160035000Y-44750000D03*
%TD*%
%TO.C,C1*%
X189965000Y-65570000D03*
X191515000Y-65570000D03*
%TD*%
%TO.C,C1*%
X142745000Y-44750000D03*
X144295000Y-44750000D03*
%TD*%
%TO.C,C1*%
X158485000Y-107210000D03*
X160035000Y-107210000D03*
%TD*%
%TO.C,C1*%
X174225000Y-44750000D03*
X175775000Y-44750000D03*
%TD*%
%TO.C,C1*%
X142745000Y-65570000D03*
X144295000Y-65570000D03*
%TD*%
%TO.C,C1*%
X174225000Y-23930000D03*
X175775000Y-23930000D03*
%TD*%
%TO.C,C1*%
X189965000Y-86390000D03*
X191515000Y-86390000D03*
%TD*%
%TO.C,C1*%
X221445000Y-23930000D03*
X222995000Y-23930000D03*
%TD*%
%TO.C,C1*%
X189965000Y-107210000D03*
X191515000Y-107210000D03*
%TD*%
%TO.C,C1*%
X205705000Y-23930000D03*
X207255000Y-23930000D03*
%TD*%
%TO.C,C1*%
X189965000Y-23930000D03*
X191515000Y-23930000D03*
%TD*%
%TO.C,C1*%
X142745000Y-23930000D03*
X144295000Y-23930000D03*
%TD*%
%TO.C,C1*%
X158485000Y-23930000D03*
X160035000Y-23930000D03*
%TD*%
%TO.C,C1*%
X158485000Y-86390000D03*
X160035000Y-86390000D03*
%TD*%
%TO.C,C1*%
X221445000Y-107210000D03*
X222995000Y-107210000D03*
%TD*%
%TO.C,C1*%
X221445000Y-65570000D03*
X222995000Y-65570000D03*
%TD*%
%TO.C,C1*%
X142745000Y-86390000D03*
X144295000Y-86390000D03*
%TD*%
%TO.C,C1*%
X174225000Y-107210000D03*
X175775000Y-107210000D03*
%TD*%
%TO.C,C1*%
X174225000Y-86390000D03*
X175775000Y-86390000D03*
%TD*%
%TO.C,C1*%
X158485000Y-65570000D03*
X160035000Y-65570000D03*
%TD*%
%TO.C,C1*%
X174225000Y-65570000D03*
X175775000Y-65570000D03*
%TD*%
%TO.C,C1*%
X189965000Y-44750000D03*
X191515000Y-44750000D03*
%TD*%
%TO.C,C1*%
X205705000Y-86390000D03*
X207255000Y-86390000D03*
%TD*%
%TO.C,C1*%
X221445000Y-86390000D03*
X222995000Y-86390000D03*
%TD*%
%TO.C,C1*%
X205705000Y-107210000D03*
X207255000Y-107210000D03*
%TD*%
%TO.C,C1*%
X221445000Y-44750000D03*
X222995000Y-44750000D03*
%TD*%
%TO.C,C1*%
X205705000Y-65570000D03*
X207255000Y-65570000D03*
%TD*%
%TO.C,C1*%
X205705000Y-44750000D03*
X207255000Y-44750000D03*
%TD*%
D14*
%TO.C,RV1*%
X144165000Y-113030000D03*
D15*
X145320000Y-110130000D03*
D14*
X146475000Y-113030000D03*
%TD*%
%TO.C,RV1*%
X144165000Y-92210000D03*
D15*
X145320000Y-89310000D03*
D14*
X146475000Y-92210000D03*
%TD*%
%TO.C,RV1*%
X144165000Y-71390000D03*
D15*
X145320000Y-68490000D03*
D14*
X146475000Y-71390000D03*
%TD*%
%TO.C,RV1*%
X144165000Y-50570000D03*
D15*
X145320000Y-47670000D03*
D14*
X146475000Y-50570000D03*
%TD*%
%TO.C,RV1*%
X144165000Y-29750000D03*
D15*
X145320000Y-26850000D03*
D14*
X146475000Y-29750000D03*
%TD*%
%TO.C,RV1*%
X159905000Y-113030000D03*
D15*
X161060000Y-110130000D03*
D14*
X162215000Y-113030000D03*
%TD*%
%TO.C,RV1*%
X159905000Y-92210000D03*
D15*
X161060000Y-89310000D03*
D14*
X162215000Y-92210000D03*
%TD*%
%TO.C,RV1*%
X159905000Y-71390000D03*
D15*
X161060000Y-68490000D03*
D14*
X162215000Y-71390000D03*
%TD*%
%TO.C,RV1*%
X159905000Y-50570000D03*
D15*
X161060000Y-47670000D03*
D14*
X162215000Y-50570000D03*
%TD*%
%TO.C,RV1*%
X175645000Y-113030000D03*
D15*
X176800000Y-110130000D03*
D14*
X177955000Y-113030000D03*
%TD*%
%TO.C,RV1*%
X175645000Y-92210000D03*
D15*
X176800000Y-89310000D03*
D14*
X177955000Y-92210000D03*
%TD*%
%TO.C,RV1*%
X175645000Y-71390000D03*
D15*
X176800000Y-68490000D03*
D14*
X177955000Y-71390000D03*
%TD*%
%TO.C,RV1*%
X175645000Y-50570000D03*
D15*
X176800000Y-47670000D03*
D14*
X177955000Y-50570000D03*
%TD*%
%TO.C,RV1*%
X159905000Y-29750000D03*
D15*
X161060000Y-26850000D03*
D14*
X162215000Y-29750000D03*
%TD*%
%TO.C,RV1*%
X207125000Y-29750000D03*
D15*
X208280000Y-26850000D03*
D14*
X209435000Y-29750000D03*
%TD*%
%TO.C,RV1*%
X207125000Y-113030000D03*
D15*
X208280000Y-110130000D03*
D14*
X209435000Y-113030000D03*
%TD*%
%TO.C,RV1*%
X207125000Y-92210000D03*
D15*
X208280000Y-89310000D03*
D14*
X209435000Y-92210000D03*
%TD*%
%TO.C,RV1*%
X191385000Y-92210000D03*
D15*
X192540000Y-89310000D03*
D14*
X193695000Y-92210000D03*
%TD*%
%TO.C,RV1*%
X175645000Y-29750000D03*
D15*
X176800000Y-26850000D03*
D14*
X177955000Y-29750000D03*
%TD*%
%TO.C,RV1*%
X222865000Y-71390000D03*
D15*
X224020000Y-68490000D03*
D14*
X225175000Y-71390000D03*
%TD*%
%TO.C,RV1*%
X191385000Y-71390000D03*
D15*
X192540000Y-68490000D03*
D14*
X193695000Y-71390000D03*
%TD*%
%TO.C,RV1*%
X207125000Y-71390000D03*
D15*
X208280000Y-68490000D03*
D14*
X209435000Y-71390000D03*
%TD*%
%TO.C,RV1*%
X222865000Y-113030000D03*
D15*
X224020000Y-110130000D03*
D14*
X225175000Y-113030000D03*
%TD*%
%TO.C,RV1*%
X191385000Y-29750000D03*
D15*
X192540000Y-26850000D03*
D14*
X193695000Y-29750000D03*
%TD*%
%TO.C,RV1*%
X222865000Y-92210000D03*
D15*
X224020000Y-89310000D03*
D14*
X225175000Y-92210000D03*
%TD*%
%TO.C,RV1*%
X191385000Y-113030000D03*
D15*
X192540000Y-110130000D03*
D14*
X193695000Y-113030000D03*
%TD*%
%TO.C,RV1*%
X191385000Y-50570000D03*
D15*
X192540000Y-47670000D03*
D14*
X193695000Y-50570000D03*
%TD*%
%TO.C,RV1*%
X207125000Y-50570000D03*
D15*
X208280000Y-47670000D03*
D14*
X209435000Y-50570000D03*
%TD*%
%TO.C,RV1*%
X222865000Y-50570000D03*
D15*
X224020000Y-47670000D03*
D14*
X225175000Y-50570000D03*
%TD*%
%TO.C,RV1*%
X222865000Y-29750000D03*
D15*
X224020000Y-26850000D03*
D14*
X225175000Y-29750000D03*
%TD*%
D16*
%TO.C,U1*%
X141750000Y-105636025D03*
X142250000Y-105636025D03*
X142750000Y-105636025D03*
X143250000Y-105636025D03*
D17*
X144000000Y-104886025D03*
X144000000Y-104386025D03*
X144000000Y-103886025D03*
X144000000Y-103386025D03*
D16*
X143250000Y-102636025D03*
X142750000Y-102636025D03*
X142250000Y-102636025D03*
X141750000Y-102636025D03*
D17*
X141000000Y-103386025D03*
X141000000Y-103886025D03*
X141000000Y-104386025D03*
X141000000Y-104886025D03*
D18*
X142500000Y-104136025D03*
%TD*%
D16*
%TO.C,U1*%
X188970000Y-84816025D03*
X189470000Y-84816025D03*
X189970000Y-84816025D03*
X190470000Y-84816025D03*
D17*
X191220000Y-84066025D03*
X191220000Y-83566025D03*
X191220000Y-83066025D03*
X191220000Y-82566025D03*
D16*
X190470000Y-81816025D03*
X189970000Y-81816025D03*
X189470000Y-81816025D03*
X188970000Y-81816025D03*
D17*
X188220000Y-82566025D03*
X188220000Y-83066025D03*
X188220000Y-83566025D03*
X188220000Y-84066025D03*
D18*
X189720000Y-83316025D03*
%TD*%
D16*
%TO.C,U1*%
X141750000Y-63996025D03*
X142250000Y-63996025D03*
X142750000Y-63996025D03*
X143250000Y-63996025D03*
D17*
X144000000Y-63246025D03*
X144000000Y-62746025D03*
X144000000Y-62246025D03*
X144000000Y-61746025D03*
D16*
X143250000Y-60996025D03*
X142750000Y-60996025D03*
X142250000Y-60996025D03*
X141750000Y-60996025D03*
D17*
X141000000Y-61746025D03*
X141000000Y-62246025D03*
X141000000Y-62746025D03*
X141000000Y-63246025D03*
D18*
X142500000Y-62496025D03*
%TD*%
D16*
%TO.C,U1*%
X157490000Y-22356025D03*
X157990000Y-22356025D03*
X158490000Y-22356025D03*
X158990000Y-22356025D03*
D17*
X159740000Y-21606025D03*
X159740000Y-21106025D03*
X159740000Y-20606025D03*
X159740000Y-20106025D03*
D16*
X158990000Y-19356025D03*
X158490000Y-19356025D03*
X157990000Y-19356025D03*
X157490000Y-19356025D03*
D17*
X156740000Y-20106025D03*
X156740000Y-20606025D03*
X156740000Y-21106025D03*
X156740000Y-21606025D03*
D18*
X158240000Y-20856025D03*
%TD*%
D16*
%TO.C,U1*%
X141750000Y-84816025D03*
X142250000Y-84816025D03*
X142750000Y-84816025D03*
X143250000Y-84816025D03*
D17*
X144000000Y-84066025D03*
X144000000Y-83566025D03*
X144000000Y-83066025D03*
X144000000Y-82566025D03*
D16*
X143250000Y-81816025D03*
X142750000Y-81816025D03*
X142250000Y-81816025D03*
X141750000Y-81816025D03*
D17*
X141000000Y-82566025D03*
X141000000Y-83066025D03*
X141000000Y-83566025D03*
X141000000Y-84066025D03*
D18*
X142500000Y-83316025D03*
%TD*%
D16*
%TO.C,U1*%
X157490000Y-43176025D03*
X157990000Y-43176025D03*
X158490000Y-43176025D03*
X158990000Y-43176025D03*
D17*
X159740000Y-42426025D03*
X159740000Y-41926025D03*
X159740000Y-41426025D03*
X159740000Y-40926025D03*
D16*
X158990000Y-40176025D03*
X158490000Y-40176025D03*
X157990000Y-40176025D03*
X157490000Y-40176025D03*
D17*
X156740000Y-40926025D03*
X156740000Y-41426025D03*
X156740000Y-41926025D03*
X156740000Y-42426025D03*
D18*
X158240000Y-41676025D03*
%TD*%
D16*
%TO.C,U1*%
X141750000Y-22356025D03*
X142250000Y-22356025D03*
X142750000Y-22356025D03*
X143250000Y-22356025D03*
D17*
X144000000Y-21606025D03*
X144000000Y-21106025D03*
X144000000Y-20606025D03*
X144000000Y-20106025D03*
D16*
X143250000Y-19356025D03*
X142750000Y-19356025D03*
X142250000Y-19356025D03*
X141750000Y-19356025D03*
D17*
X141000000Y-20106025D03*
X141000000Y-20606025D03*
X141000000Y-21106025D03*
X141000000Y-21606025D03*
D18*
X142500000Y-20856025D03*
%TD*%
D16*
%TO.C,U1*%
X157490000Y-105636025D03*
X157990000Y-105636025D03*
X158490000Y-105636025D03*
X158990000Y-105636025D03*
D17*
X159740000Y-104886025D03*
X159740000Y-104386025D03*
X159740000Y-103886025D03*
X159740000Y-103386025D03*
D16*
X158990000Y-102636025D03*
X158490000Y-102636025D03*
X157990000Y-102636025D03*
X157490000Y-102636025D03*
D17*
X156740000Y-103386025D03*
X156740000Y-103886025D03*
X156740000Y-104386025D03*
X156740000Y-104886025D03*
D18*
X158240000Y-104136025D03*
%TD*%
D16*
%TO.C,U1*%
X157490000Y-84816025D03*
X157990000Y-84816025D03*
X158490000Y-84816025D03*
X158990000Y-84816025D03*
D17*
X159740000Y-84066025D03*
X159740000Y-83566025D03*
X159740000Y-83066025D03*
X159740000Y-82566025D03*
D16*
X158990000Y-81816025D03*
X158490000Y-81816025D03*
X157990000Y-81816025D03*
X157490000Y-81816025D03*
D17*
X156740000Y-82566025D03*
X156740000Y-83066025D03*
X156740000Y-83566025D03*
X156740000Y-84066025D03*
D18*
X158240000Y-83316025D03*
%TD*%
D16*
%TO.C,U1*%
X173230000Y-105636025D03*
X173730000Y-105636025D03*
X174230000Y-105636025D03*
X174730000Y-105636025D03*
D17*
X175480000Y-104886025D03*
X175480000Y-104386025D03*
X175480000Y-103886025D03*
X175480000Y-103386025D03*
D16*
X174730000Y-102636025D03*
X174230000Y-102636025D03*
X173730000Y-102636025D03*
X173230000Y-102636025D03*
D17*
X172480000Y-103386025D03*
X172480000Y-103886025D03*
X172480000Y-104386025D03*
X172480000Y-104886025D03*
D18*
X173980000Y-104136025D03*
%TD*%
D16*
%TO.C,U1*%
X173230000Y-84816025D03*
X173730000Y-84816025D03*
X174230000Y-84816025D03*
X174730000Y-84816025D03*
D17*
X175480000Y-84066025D03*
X175480000Y-83566025D03*
X175480000Y-83066025D03*
X175480000Y-82566025D03*
D16*
X174730000Y-81816025D03*
X174230000Y-81816025D03*
X173730000Y-81816025D03*
X173230000Y-81816025D03*
D17*
X172480000Y-82566025D03*
X172480000Y-83066025D03*
X172480000Y-83566025D03*
X172480000Y-84066025D03*
D18*
X173980000Y-83316025D03*
%TD*%
D16*
%TO.C,U1*%
X141750000Y-43176025D03*
X142250000Y-43176025D03*
X142750000Y-43176025D03*
X143250000Y-43176025D03*
D17*
X144000000Y-42426025D03*
X144000000Y-41926025D03*
X144000000Y-41426025D03*
X144000000Y-40926025D03*
D16*
X143250000Y-40176025D03*
X142750000Y-40176025D03*
X142250000Y-40176025D03*
X141750000Y-40176025D03*
D17*
X141000000Y-40926025D03*
X141000000Y-41426025D03*
X141000000Y-41926025D03*
X141000000Y-42426025D03*
D18*
X142500000Y-41676025D03*
%TD*%
D16*
%TO.C,U1*%
X173230000Y-63996025D03*
X173730000Y-63996025D03*
X174230000Y-63996025D03*
X174730000Y-63996025D03*
D17*
X175480000Y-63246025D03*
X175480000Y-62746025D03*
X175480000Y-62246025D03*
X175480000Y-61746025D03*
D16*
X174730000Y-60996025D03*
X174230000Y-60996025D03*
X173730000Y-60996025D03*
X173230000Y-60996025D03*
D17*
X172480000Y-61746025D03*
X172480000Y-62246025D03*
X172480000Y-62746025D03*
X172480000Y-63246025D03*
D18*
X173980000Y-62496025D03*
%TD*%
D16*
%TO.C,U1*%
X173230000Y-43176025D03*
X173730000Y-43176025D03*
X174230000Y-43176025D03*
X174730000Y-43176025D03*
D17*
X175480000Y-42426025D03*
X175480000Y-41926025D03*
X175480000Y-41426025D03*
X175480000Y-40926025D03*
D16*
X174730000Y-40176025D03*
X174230000Y-40176025D03*
X173730000Y-40176025D03*
X173230000Y-40176025D03*
D17*
X172480000Y-40926025D03*
X172480000Y-41426025D03*
X172480000Y-41926025D03*
X172480000Y-42426025D03*
D18*
X173980000Y-41676025D03*
%TD*%
D16*
%TO.C,U1*%
X188970000Y-105636025D03*
X189470000Y-105636025D03*
X189970000Y-105636025D03*
X190470000Y-105636025D03*
D17*
X191220000Y-104886025D03*
X191220000Y-104386025D03*
X191220000Y-103886025D03*
X191220000Y-103386025D03*
D16*
X190470000Y-102636025D03*
X189970000Y-102636025D03*
X189470000Y-102636025D03*
X188970000Y-102636025D03*
D17*
X188220000Y-103386025D03*
X188220000Y-103886025D03*
X188220000Y-104386025D03*
X188220000Y-104886025D03*
D18*
X189720000Y-104136025D03*
%TD*%
D16*
%TO.C,U1*%
X157490000Y-63996025D03*
X157990000Y-63996025D03*
X158490000Y-63996025D03*
X158990000Y-63996025D03*
D17*
X159740000Y-63246025D03*
X159740000Y-62746025D03*
X159740000Y-62246025D03*
X159740000Y-61746025D03*
D16*
X158990000Y-60996025D03*
X158490000Y-60996025D03*
X157990000Y-60996025D03*
X157490000Y-60996025D03*
D17*
X156740000Y-61746025D03*
X156740000Y-62246025D03*
X156740000Y-62746025D03*
X156740000Y-63246025D03*
D18*
X158240000Y-62496025D03*
%TD*%
D16*
%TO.C,U1*%
X173230000Y-22356025D03*
X173730000Y-22356025D03*
X174230000Y-22356025D03*
X174730000Y-22356025D03*
D17*
X175480000Y-21606025D03*
X175480000Y-21106025D03*
X175480000Y-20606025D03*
X175480000Y-20106025D03*
D16*
X174730000Y-19356025D03*
X174230000Y-19356025D03*
X173730000Y-19356025D03*
X173230000Y-19356025D03*
D17*
X172480000Y-20106025D03*
X172480000Y-20606025D03*
X172480000Y-21106025D03*
X172480000Y-21606025D03*
D18*
X173980000Y-20856025D03*
%TD*%
D16*
%TO.C,U1*%
X204710000Y-63996025D03*
X205210000Y-63996025D03*
X205710000Y-63996025D03*
X206210000Y-63996025D03*
D17*
X206960000Y-63246025D03*
X206960000Y-62746025D03*
X206960000Y-62246025D03*
X206960000Y-61746025D03*
D16*
X206210000Y-60996025D03*
X205710000Y-60996025D03*
X205210000Y-60996025D03*
X204710000Y-60996025D03*
D17*
X203960000Y-61746025D03*
X203960000Y-62246025D03*
X203960000Y-62746025D03*
X203960000Y-63246025D03*
D18*
X205460000Y-62496025D03*
%TD*%
D16*
%TO.C,U1*%
X188970000Y-63996025D03*
X189470000Y-63996025D03*
X189970000Y-63996025D03*
X190470000Y-63996025D03*
D17*
X191220000Y-63246025D03*
X191220000Y-62746025D03*
X191220000Y-62246025D03*
X191220000Y-61746025D03*
D16*
X190470000Y-60996025D03*
X189970000Y-60996025D03*
X189470000Y-60996025D03*
X188970000Y-60996025D03*
D17*
X188220000Y-61746025D03*
X188220000Y-62246025D03*
X188220000Y-62746025D03*
X188220000Y-63246025D03*
D18*
X189720000Y-62496025D03*
%TD*%
D16*
%TO.C,U1*%
X188970000Y-43176025D03*
X189470000Y-43176025D03*
X189970000Y-43176025D03*
X190470000Y-43176025D03*
D17*
X191220000Y-42426025D03*
X191220000Y-41926025D03*
X191220000Y-41426025D03*
X191220000Y-40926025D03*
D16*
X190470000Y-40176025D03*
X189970000Y-40176025D03*
X189470000Y-40176025D03*
X188970000Y-40176025D03*
D17*
X188220000Y-40926025D03*
X188220000Y-41426025D03*
X188220000Y-41926025D03*
X188220000Y-42426025D03*
D18*
X189720000Y-41676025D03*
%TD*%
D16*
%TO.C,U1*%
X220450000Y-63996025D03*
X220950000Y-63996025D03*
X221450000Y-63996025D03*
X221950000Y-63996025D03*
D17*
X222700000Y-63246025D03*
X222700000Y-62746025D03*
X222700000Y-62246025D03*
X222700000Y-61746025D03*
D16*
X221950000Y-60996025D03*
X221450000Y-60996025D03*
X220950000Y-60996025D03*
X220450000Y-60996025D03*
D17*
X219700000Y-61746025D03*
X219700000Y-62246025D03*
X219700000Y-62746025D03*
X219700000Y-63246025D03*
D18*
X221200000Y-62496025D03*
%TD*%
D16*
%TO.C,U1*%
X188970000Y-22356025D03*
X189470000Y-22356025D03*
X189970000Y-22356025D03*
X190470000Y-22356025D03*
D17*
X191220000Y-21606025D03*
X191220000Y-21106025D03*
X191220000Y-20606025D03*
X191220000Y-20106025D03*
D16*
X190470000Y-19356025D03*
X189970000Y-19356025D03*
X189470000Y-19356025D03*
X188970000Y-19356025D03*
D17*
X188220000Y-20106025D03*
X188220000Y-20606025D03*
X188220000Y-21106025D03*
X188220000Y-21606025D03*
D18*
X189720000Y-20856025D03*
%TD*%
D16*
%TO.C,U1*%
X220450000Y-22356025D03*
X220950000Y-22356025D03*
X221450000Y-22356025D03*
X221950000Y-22356025D03*
D17*
X222700000Y-21606025D03*
X222700000Y-21106025D03*
X222700000Y-20606025D03*
X222700000Y-20106025D03*
D16*
X221950000Y-19356025D03*
X221450000Y-19356025D03*
X220950000Y-19356025D03*
X220450000Y-19356025D03*
D17*
X219700000Y-20106025D03*
X219700000Y-20606025D03*
X219700000Y-21106025D03*
X219700000Y-21606025D03*
D18*
X221200000Y-20856025D03*
%TD*%
D16*
%TO.C,U1*%
X220450000Y-105636025D03*
X220950000Y-105636025D03*
X221450000Y-105636025D03*
X221950000Y-105636025D03*
D17*
X222700000Y-104886025D03*
X222700000Y-104386025D03*
X222700000Y-103886025D03*
X222700000Y-103386025D03*
D16*
X221950000Y-102636025D03*
X221450000Y-102636025D03*
X220950000Y-102636025D03*
X220450000Y-102636025D03*
D17*
X219700000Y-103386025D03*
X219700000Y-103886025D03*
X219700000Y-104386025D03*
X219700000Y-104886025D03*
D18*
X221200000Y-104136025D03*
%TD*%
D16*
%TO.C,U1*%
X220450000Y-43176025D03*
X220950000Y-43176025D03*
X221450000Y-43176025D03*
X221950000Y-43176025D03*
D17*
X222700000Y-42426025D03*
X222700000Y-41926025D03*
X222700000Y-41426025D03*
X222700000Y-40926025D03*
D16*
X221950000Y-40176025D03*
X221450000Y-40176025D03*
X220950000Y-40176025D03*
X220450000Y-40176025D03*
D17*
X219700000Y-40926025D03*
X219700000Y-41426025D03*
X219700000Y-41926025D03*
X219700000Y-42426025D03*
D18*
X221200000Y-41676025D03*
%TD*%
D16*
%TO.C,U1*%
X204710000Y-84816025D03*
X205210000Y-84816025D03*
X205710000Y-84816025D03*
X206210000Y-84816025D03*
D17*
X206960000Y-84066025D03*
X206960000Y-83566025D03*
X206960000Y-83066025D03*
X206960000Y-82566025D03*
D16*
X206210000Y-81816025D03*
X205710000Y-81816025D03*
X205210000Y-81816025D03*
X204710000Y-81816025D03*
D17*
X203960000Y-82566025D03*
X203960000Y-83066025D03*
X203960000Y-83566025D03*
X203960000Y-84066025D03*
D18*
X205460000Y-83316025D03*
%TD*%
D16*
%TO.C,U1*%
X204710000Y-22356025D03*
X205210000Y-22356025D03*
X205710000Y-22356025D03*
X206210000Y-22356025D03*
D17*
X206960000Y-21606025D03*
X206960000Y-21106025D03*
X206960000Y-20606025D03*
X206960000Y-20106025D03*
D16*
X206210000Y-19356025D03*
X205710000Y-19356025D03*
X205210000Y-19356025D03*
X204710000Y-19356025D03*
D17*
X203960000Y-20106025D03*
X203960000Y-20606025D03*
X203960000Y-21106025D03*
X203960000Y-21606025D03*
D18*
X205460000Y-20856025D03*
%TD*%
D16*
%TO.C,U1*%
X220450000Y-84816025D03*
X220950000Y-84816025D03*
X221450000Y-84816025D03*
X221950000Y-84816025D03*
D17*
X222700000Y-84066025D03*
X222700000Y-83566025D03*
X222700000Y-83066025D03*
X222700000Y-82566025D03*
D16*
X221950000Y-81816025D03*
X221450000Y-81816025D03*
X220950000Y-81816025D03*
X220450000Y-81816025D03*
D17*
X219700000Y-82566025D03*
X219700000Y-83066025D03*
X219700000Y-83566025D03*
X219700000Y-84066025D03*
D18*
X221200000Y-83316025D03*
%TD*%
D16*
%TO.C,U1*%
X204710000Y-43176025D03*
X205210000Y-43176025D03*
X205710000Y-43176025D03*
X206210000Y-43176025D03*
D17*
X206960000Y-42426025D03*
X206960000Y-41926025D03*
X206960000Y-41426025D03*
X206960000Y-40926025D03*
D16*
X206210000Y-40176025D03*
X205710000Y-40176025D03*
X205210000Y-40176025D03*
X204710000Y-40176025D03*
D17*
X203960000Y-40926025D03*
X203960000Y-41426025D03*
X203960000Y-41926025D03*
X203960000Y-42426025D03*
D18*
X205460000Y-41676025D03*
%TD*%
D16*
%TO.C,U1*%
X204710000Y-105636025D03*
X205210000Y-105636025D03*
X205710000Y-105636025D03*
X206210000Y-105636025D03*
D17*
X206960000Y-104886025D03*
X206960000Y-104386025D03*
X206960000Y-103886025D03*
X206960000Y-103386025D03*
D16*
X206210000Y-102636025D03*
X205710000Y-102636025D03*
X205210000Y-102636025D03*
X204710000Y-102636025D03*
D17*
X203960000Y-103386025D03*
X203960000Y-103886025D03*
X203960000Y-104386025D03*
X203960000Y-104886025D03*
D18*
X205460000Y-104136025D03*
%TD*%
D19*
%TO.C,J2*%
X148590000Y-95250000D03*
X148590000Y-97790000D03*
X148590000Y-100330000D03*
X148590000Y-102870000D03*
X148590000Y-105410000D03*
X148590000Y-107950000D03*
X148590000Y-110490000D03*
X148590000Y-113030000D03*
%TD*%
%TO.C,J2*%
X148590000Y-53610000D03*
X148590000Y-56150000D03*
X148590000Y-58690000D03*
X148590000Y-61230000D03*
X148590000Y-63770000D03*
X148590000Y-66310000D03*
X148590000Y-68850000D03*
X148590000Y-71390000D03*
%TD*%
%TO.C,J2*%
X164330000Y-11970000D03*
X164330000Y-14510000D03*
X164330000Y-17050000D03*
X164330000Y-19590000D03*
X164330000Y-22130000D03*
X164330000Y-24670000D03*
X164330000Y-27210000D03*
X164330000Y-29750000D03*
%TD*%
%TO.C,J2*%
X164330000Y-95250000D03*
X164330000Y-97790000D03*
X164330000Y-100330000D03*
X164330000Y-102870000D03*
X164330000Y-105410000D03*
X164330000Y-107950000D03*
X164330000Y-110490000D03*
X164330000Y-113030000D03*
%TD*%
%TO.C,J2*%
X148590000Y-32790000D03*
X148590000Y-35330000D03*
X148590000Y-37870000D03*
X148590000Y-40410000D03*
X148590000Y-42950000D03*
X148590000Y-45490000D03*
X148590000Y-48030000D03*
X148590000Y-50570000D03*
%TD*%
%TO.C,J2*%
X148590000Y-11970000D03*
X148590000Y-14510000D03*
X148590000Y-17050000D03*
X148590000Y-19590000D03*
X148590000Y-22130000D03*
X148590000Y-24670000D03*
X148590000Y-27210000D03*
X148590000Y-29750000D03*
%TD*%
%TO.C,J2*%
X164330000Y-74430000D03*
X164330000Y-76970000D03*
X164330000Y-79510000D03*
X164330000Y-82050000D03*
X164330000Y-84590000D03*
X164330000Y-87130000D03*
X164330000Y-89670000D03*
X164330000Y-92210000D03*
%TD*%
%TO.C,J2*%
X164330000Y-32790000D03*
X164330000Y-35330000D03*
X164330000Y-37870000D03*
X164330000Y-40410000D03*
X164330000Y-42950000D03*
X164330000Y-45490000D03*
X164330000Y-48030000D03*
X164330000Y-50570000D03*
%TD*%
%TO.C,J2*%
X148590000Y-74430000D03*
X148590000Y-76970000D03*
X148590000Y-79510000D03*
X148590000Y-82050000D03*
X148590000Y-84590000D03*
X148590000Y-87130000D03*
X148590000Y-89670000D03*
X148590000Y-92210000D03*
%TD*%
%TO.C,J2*%
X227290000Y-74430000D03*
X227290000Y-76970000D03*
X227290000Y-79510000D03*
X227290000Y-82050000D03*
X227290000Y-84590000D03*
X227290000Y-87130000D03*
X227290000Y-89670000D03*
X227290000Y-92210000D03*
%TD*%
%TO.C,J2*%
X164330000Y-53610000D03*
X164330000Y-56150000D03*
X164330000Y-58690000D03*
X164330000Y-61230000D03*
X164330000Y-63770000D03*
X164330000Y-66310000D03*
X164330000Y-68850000D03*
X164330000Y-71390000D03*
%TD*%
%TO.C,J2*%
X211550000Y-53610000D03*
X211550000Y-56150000D03*
X211550000Y-58690000D03*
X211550000Y-61230000D03*
X211550000Y-63770000D03*
X211550000Y-66310000D03*
X211550000Y-68850000D03*
X211550000Y-71390000D03*
%TD*%
%TO.C,J2*%
X180070000Y-11970000D03*
X180070000Y-14510000D03*
X180070000Y-17050000D03*
X180070000Y-19590000D03*
X180070000Y-22130000D03*
X180070000Y-24670000D03*
X180070000Y-27210000D03*
X180070000Y-29750000D03*
%TD*%
%TO.C,J2*%
X227290000Y-95250000D03*
X227290000Y-97790000D03*
X227290000Y-100330000D03*
X227290000Y-102870000D03*
X227290000Y-105410000D03*
X227290000Y-107950000D03*
X227290000Y-110490000D03*
X227290000Y-113030000D03*
%TD*%
%TO.C,J2*%
X180070000Y-95250000D03*
X180070000Y-97790000D03*
X180070000Y-100330000D03*
X180070000Y-102870000D03*
X180070000Y-105410000D03*
X180070000Y-107950000D03*
X180070000Y-110490000D03*
X180070000Y-113030000D03*
%TD*%
%TO.C,J2*%
X211550000Y-32790000D03*
X211550000Y-35330000D03*
X211550000Y-37870000D03*
X211550000Y-40410000D03*
X211550000Y-42950000D03*
X211550000Y-45490000D03*
X211550000Y-48030000D03*
X211550000Y-50570000D03*
%TD*%
%TO.C,J2*%
X180070000Y-74430000D03*
X180070000Y-76970000D03*
X180070000Y-79510000D03*
X180070000Y-82050000D03*
X180070000Y-84590000D03*
X180070000Y-87130000D03*
X180070000Y-89670000D03*
X180070000Y-92210000D03*
%TD*%
%TO.C,J2*%
X195810000Y-74430000D03*
X195810000Y-76970000D03*
X195810000Y-79510000D03*
X195810000Y-82050000D03*
X195810000Y-84590000D03*
X195810000Y-87130000D03*
X195810000Y-89670000D03*
X195810000Y-92210000D03*
%TD*%
%TO.C,J2*%
X195810000Y-32790000D03*
X195810000Y-35330000D03*
X195810000Y-37870000D03*
X195810000Y-40410000D03*
X195810000Y-42950000D03*
X195810000Y-45490000D03*
X195810000Y-48030000D03*
X195810000Y-50570000D03*
%TD*%
%TO.C,J2*%
X195810000Y-11970000D03*
X195810000Y-14510000D03*
X195810000Y-17050000D03*
X195810000Y-19590000D03*
X195810000Y-22130000D03*
X195810000Y-24670000D03*
X195810000Y-27210000D03*
X195810000Y-29750000D03*
%TD*%
%TO.C,J2*%
X180070000Y-53610000D03*
X180070000Y-56150000D03*
X180070000Y-58690000D03*
X180070000Y-61230000D03*
X180070000Y-63770000D03*
X180070000Y-66310000D03*
X180070000Y-68850000D03*
X180070000Y-71390000D03*
%TD*%
%TO.C,J2*%
X195810000Y-53610000D03*
X195810000Y-56150000D03*
X195810000Y-58690000D03*
X195810000Y-61230000D03*
X195810000Y-63770000D03*
X195810000Y-66310000D03*
X195810000Y-68850000D03*
X195810000Y-71390000D03*
%TD*%
%TO.C,J2*%
X195810000Y-95250000D03*
X195810000Y-97790000D03*
X195810000Y-100330000D03*
X195810000Y-102870000D03*
X195810000Y-105410000D03*
X195810000Y-107950000D03*
X195810000Y-110490000D03*
X195810000Y-113030000D03*
%TD*%
%TO.C,J2*%
X211550000Y-74430000D03*
X211550000Y-76970000D03*
X211550000Y-79510000D03*
X211550000Y-82050000D03*
X211550000Y-84590000D03*
X211550000Y-87130000D03*
X211550000Y-89670000D03*
X211550000Y-92210000D03*
%TD*%
%TO.C,J2*%
X227290000Y-53610000D03*
X227290000Y-56150000D03*
X227290000Y-58690000D03*
X227290000Y-61230000D03*
X227290000Y-63770000D03*
X227290000Y-66310000D03*
X227290000Y-68850000D03*
X227290000Y-71390000D03*
%TD*%
%TO.C,J2*%
X227290000Y-32790000D03*
X227290000Y-35330000D03*
X227290000Y-37870000D03*
X227290000Y-40410000D03*
X227290000Y-42950000D03*
X227290000Y-45490000D03*
X227290000Y-48030000D03*
X227290000Y-50570000D03*
%TD*%
%TO.C,J2*%
X211550000Y-95250000D03*
X211550000Y-97790000D03*
X211550000Y-100330000D03*
X211550000Y-102870000D03*
X211550000Y-105410000D03*
X211550000Y-107950000D03*
X211550000Y-110490000D03*
X211550000Y-113030000D03*
%TD*%
%TO.C,J2*%
X180070000Y-32790000D03*
X180070000Y-35330000D03*
X180070000Y-37870000D03*
X180070000Y-40410000D03*
X180070000Y-42950000D03*
X180070000Y-45490000D03*
X180070000Y-48030000D03*
X180070000Y-50570000D03*
%TD*%
%TO.C,J2*%
X211550000Y-11970000D03*
X211550000Y-14510000D03*
X211550000Y-17050000D03*
X211550000Y-19590000D03*
X211550000Y-22130000D03*
X211550000Y-24670000D03*
X211550000Y-27210000D03*
X211550000Y-29750000D03*
%TD*%
%TO.C,J2*%
X227290000Y-11970000D03*
X227290000Y-14510000D03*
X227290000Y-17050000D03*
X227290000Y-19590000D03*
X227290000Y-22130000D03*
X227290000Y-24670000D03*
X227290000Y-27210000D03*
X227290000Y-29750000D03*
%TD*%
D13*
%TO.C,R1*%
X141065000Y-113100000D03*
X142715000Y-113100000D03*
%TD*%
%TO.C,R1*%
X156805000Y-50640000D03*
X158455000Y-50640000D03*
%TD*%
%TO.C,R1*%
X172545000Y-29820000D03*
X174195000Y-29820000D03*
%TD*%
%TO.C,R1*%
X204025000Y-113100000D03*
X205675000Y-113100000D03*
%TD*%
%TO.C,R1*%
X204025000Y-71460000D03*
X205675000Y-71460000D03*
%TD*%
%TO.C,R1*%
X188285000Y-50640000D03*
X189935000Y-50640000D03*
%TD*%
%TO.C,R1*%
X219765000Y-92280000D03*
X221415000Y-92280000D03*
%TD*%
%TO.C,R1*%
X204025000Y-29820000D03*
X205675000Y-29820000D03*
%TD*%
%TO.C,R1*%
X172545000Y-113100000D03*
X174195000Y-113100000D03*
%TD*%
%TO.C,R1*%
X141065000Y-50640000D03*
X142715000Y-50640000D03*
%TD*%
%TO.C,R1*%
X156805000Y-113100000D03*
X158455000Y-113100000D03*
%TD*%
%TO.C,R1*%
X188285000Y-113100000D03*
X189935000Y-113100000D03*
%TD*%
%TO.C,R1*%
X156805000Y-29820000D03*
X158455000Y-29820000D03*
%TD*%
%TO.C,R1*%
X141065000Y-92280000D03*
X142715000Y-92280000D03*
%TD*%
%TO.C,R1*%
X172545000Y-50640000D03*
X174195000Y-50640000D03*
%TD*%
%TO.C,R1*%
X156805000Y-71460000D03*
X158455000Y-71460000D03*
%TD*%
%TO.C,R1*%
X188285000Y-92280000D03*
X189935000Y-92280000D03*
%TD*%
%TO.C,R1*%
X188285000Y-71460000D03*
X189935000Y-71460000D03*
%TD*%
%TO.C,R1*%
X172545000Y-92280000D03*
X174195000Y-92280000D03*
%TD*%
%TO.C,R1*%
X156805000Y-92280000D03*
X158455000Y-92280000D03*
%TD*%
%TO.C,R1*%
X141065000Y-71460000D03*
X142715000Y-71460000D03*
%TD*%
%TO.C,R1*%
X141065000Y-29820000D03*
X142715000Y-29820000D03*
%TD*%
%TO.C,R1*%
X172545000Y-71460000D03*
X174195000Y-71460000D03*
%TD*%
%TO.C,R1*%
X188285000Y-29820000D03*
X189935000Y-29820000D03*
%TD*%
%TO.C,R1*%
X204025000Y-92280000D03*
X205675000Y-92280000D03*
%TD*%
%TO.C,R1*%
X204025000Y-50640000D03*
X205675000Y-50640000D03*
%TD*%
%TO.C,R1*%
X219765000Y-113100000D03*
X221415000Y-113100000D03*
%TD*%
%TO.C,R1*%
X219765000Y-29820000D03*
X221415000Y-29820000D03*
%TD*%
%TO.C,R1*%
X219765000Y-50640000D03*
X221415000Y-50640000D03*
%TD*%
%TO.C,R1*%
X219765000Y-71460000D03*
X221415000Y-71460000D03*
%TD*%
D11*
%TO.C,R3*%
X139745000Y-95130000D03*
X138095000Y-95130000D03*
%TD*%
%TO.C,R3*%
X186965000Y-53490000D03*
X185315000Y-53490000D03*
%TD*%
%TO.C,R3*%
X139745000Y-32670000D03*
X138095000Y-32670000D03*
%TD*%
%TO.C,R3*%
X155485000Y-53490000D03*
X153835000Y-53490000D03*
%TD*%
%TO.C,R3*%
X171225000Y-32670000D03*
X169575000Y-32670000D03*
%TD*%
%TO.C,R3*%
X186965000Y-74310000D03*
X185315000Y-74310000D03*
%TD*%
%TO.C,R3*%
X202705000Y-74310000D03*
X201055000Y-74310000D03*
%TD*%
%TO.C,R3*%
X186965000Y-95130000D03*
X185315000Y-95130000D03*
%TD*%
%TO.C,R3*%
X202705000Y-32670000D03*
X201055000Y-32670000D03*
%TD*%
%TO.C,R3*%
X139745000Y-74310000D03*
X138095000Y-74310000D03*
%TD*%
%TO.C,R3*%
X171225000Y-74310000D03*
X169575000Y-74310000D03*
%TD*%
%TO.C,R3*%
X155485000Y-11850000D03*
X153835000Y-11850000D03*
%TD*%
%TO.C,R3*%
X171225000Y-11850000D03*
X169575000Y-11850000D03*
%TD*%
%TO.C,R3*%
X139745000Y-53490000D03*
X138095000Y-53490000D03*
%TD*%
%TO.C,R3*%
X155485000Y-74310000D03*
X153835000Y-74310000D03*
%TD*%
%TO.C,R3*%
X139745000Y-11850000D03*
X138095000Y-11850000D03*
%TD*%
%TO.C,R3*%
X171225000Y-95130000D03*
X169575000Y-95130000D03*
%TD*%
%TO.C,R3*%
X155485000Y-95130000D03*
X153835000Y-95130000D03*
%TD*%
%TO.C,R3*%
X171225000Y-53490000D03*
X169575000Y-53490000D03*
%TD*%
%TO.C,R3*%
X155485000Y-32670000D03*
X153835000Y-32670000D03*
%TD*%
%TO.C,R3*%
X186965000Y-32670000D03*
X185315000Y-32670000D03*
%TD*%
%TO.C,R3*%
X186965000Y-11850000D03*
X185315000Y-11850000D03*
%TD*%
%TO.C,R3*%
X202705000Y-53490000D03*
X201055000Y-53490000D03*
%TD*%
%TO.C,R3*%
X218445000Y-32670000D03*
X216795000Y-32670000D03*
%TD*%
%TO.C,R3*%
X202705000Y-95130000D03*
X201055000Y-95130000D03*
%TD*%
%TO.C,R3*%
X218445000Y-95130000D03*
X216795000Y-95130000D03*
%TD*%
%TO.C,R3*%
X218445000Y-11850000D03*
X216795000Y-11850000D03*
%TD*%
%TO.C,R3*%
X218445000Y-74310000D03*
X216795000Y-74310000D03*
%TD*%
%TO.C,R3*%
X218445000Y-53490000D03*
X216795000Y-53490000D03*
%TD*%
%TO.C,R3*%
X202705000Y-11850000D03*
X201055000Y-11850000D03*
%TD*%
%TO.C,R5*%
X139685000Y-113100000D03*
X138035000Y-113100000D03*
%TD*%
%TO.C,R5*%
X139685000Y-92280000D03*
X138035000Y-92280000D03*
%TD*%
%TO.C,R5*%
X139685000Y-71460000D03*
X138035000Y-71460000D03*
%TD*%
%TO.C,R5*%
X139685000Y-50640000D03*
X138035000Y-50640000D03*
%TD*%
%TO.C,R5*%
X139685000Y-29820000D03*
X138035000Y-29820000D03*
%TD*%
%TO.C,R5*%
X155425000Y-113100000D03*
X153775000Y-113100000D03*
%TD*%
%TO.C,R5*%
X186905000Y-92280000D03*
X185255000Y-92280000D03*
%TD*%
%TO.C,R5*%
X155425000Y-50640000D03*
X153775000Y-50640000D03*
%TD*%
%TO.C,R5*%
X171165000Y-50640000D03*
X169515000Y-50640000D03*
%TD*%
%TO.C,R5*%
X186905000Y-113100000D03*
X185255000Y-113100000D03*
%TD*%
%TO.C,R5*%
X171165000Y-113100000D03*
X169515000Y-113100000D03*
%TD*%
%TO.C,R5*%
X218385000Y-71460000D03*
X216735000Y-71460000D03*
%TD*%
%TO.C,R5*%
X186905000Y-29820000D03*
X185255000Y-29820000D03*
%TD*%
%TO.C,R5*%
X218385000Y-29820000D03*
X216735000Y-29820000D03*
%TD*%
%TO.C,R5*%
X171165000Y-29820000D03*
X169515000Y-29820000D03*
%TD*%
%TO.C,R5*%
X186905000Y-50640000D03*
X185255000Y-50640000D03*
%TD*%
%TO.C,R5*%
X218385000Y-113100000D03*
X216735000Y-113100000D03*
%TD*%
%TO.C,R5*%
X202645000Y-50640000D03*
X200995000Y-50640000D03*
%TD*%
%TO.C,R5*%
X202645000Y-29820000D03*
X200995000Y-29820000D03*
%TD*%
%TO.C,R5*%
X171165000Y-71460000D03*
X169515000Y-71460000D03*
%TD*%
%TO.C,R5*%
X202645000Y-92280000D03*
X200995000Y-92280000D03*
%TD*%
%TO.C,R5*%
X186905000Y-71460000D03*
X185255000Y-71460000D03*
%TD*%
%TO.C,R5*%
X218385000Y-92280000D03*
X216735000Y-92280000D03*
%TD*%
%TO.C,R5*%
X155425000Y-92280000D03*
X153775000Y-92280000D03*
%TD*%
%TO.C,R5*%
X155425000Y-71460000D03*
X153775000Y-71460000D03*
%TD*%
%TO.C,R5*%
X155425000Y-29820000D03*
X153775000Y-29820000D03*
%TD*%
%TO.C,R5*%
X171165000Y-92280000D03*
X169515000Y-92280000D03*
%TD*%
%TO.C,R5*%
X202645000Y-113100000D03*
X200995000Y-113100000D03*
%TD*%
%TO.C,R5*%
X218385000Y-50640000D03*
X216735000Y-50640000D03*
%TD*%
%TO.C,R5*%
X202645000Y-71460000D03*
X200995000Y-71460000D03*
%TD*%
D10*
%TO.C,*%
X136620000Y-117975000D03*
%TD*%
D20*
%TO.C,FID4*%
X137250000Y-113760000D03*
%TD*%
%TO.C,FID4*%
X184470000Y-92940000D03*
%TD*%
%TO.C,FID4*%
X152990000Y-92940000D03*
%TD*%
%TO.C,FID4*%
X200210000Y-72120000D03*
%TD*%
%TO.C,FID4*%
X184470000Y-51300000D03*
%TD*%
%TO.C,FID4*%
X152990000Y-51300000D03*
%TD*%
%TO.C,FID4*%
X215950000Y-72120000D03*
%TD*%
%TO.C,FID4*%
X137250000Y-72120000D03*
%TD*%
%TO.C,FID4*%
X152990000Y-113760000D03*
%TD*%
%TO.C,FID4*%
X168730000Y-92940000D03*
%TD*%
%TO.C,FID4*%
X137250000Y-51300000D03*
%TD*%
%TO.C,FID4*%
X215950000Y-92940000D03*
%TD*%
%TO.C,FID4*%
X137250000Y-30480000D03*
%TD*%
%TO.C,FID4*%
X200210000Y-92940000D03*
%TD*%
%TO.C,FID4*%
X168730000Y-51300000D03*
%TD*%
%TO.C,FID4*%
X152990000Y-72120000D03*
%TD*%
%TO.C,FID4*%
X168730000Y-113760000D03*
%TD*%
%TO.C,FID4*%
X184470000Y-113760000D03*
%TD*%
%TO.C,FID4*%
X152990000Y-30480000D03*
%TD*%
%TO.C,FID4*%
X184470000Y-72120000D03*
%TD*%
%TO.C,FID4*%
X168730000Y-72120000D03*
%TD*%
%TO.C,FID4*%
X168730000Y-30480000D03*
%TD*%
%TO.C,FID4*%
X137250000Y-92940000D03*
%TD*%
%TO.C,FID4*%
X184470000Y-30480000D03*
%TD*%
%TO.C,FID4*%
X200210000Y-113760000D03*
%TD*%
%TO.C,FID4*%
X200210000Y-51300000D03*
%TD*%
%TO.C,FID4*%
X215950000Y-113760000D03*
%TD*%
%TO.C,FID4*%
X200210000Y-30480000D03*
%TD*%
%TO.C,FID4*%
X215950000Y-30480000D03*
%TD*%
%TO.C,FID4*%
X215950000Y-51300000D03*
%TD*%
%TO.C,FID1*%
X147130000Y-94690000D03*
%TD*%
%TO.C,FID1*%
X194350000Y-94690000D03*
%TD*%
%TO.C,FID1*%
X210090000Y-73870000D03*
%TD*%
%TO.C,FID1*%
X147130000Y-11410000D03*
%TD*%
%TO.C,FID1*%
X162870000Y-11410000D03*
%TD*%
%TO.C,FID1*%
X147130000Y-32230000D03*
%TD*%
%TO.C,FID1*%
X194350000Y-73870000D03*
%TD*%
%TO.C,FID1*%
X194350000Y-53050000D03*
%TD*%
%TO.C,FID1*%
X194350000Y-32230000D03*
%TD*%
%TO.C,FID1*%
X162870000Y-94690000D03*
%TD*%
%TO.C,FID1*%
X162870000Y-32230000D03*
%TD*%
%TO.C,FID1*%
X147130000Y-73870000D03*
%TD*%
%TO.C,FID1*%
X162870000Y-53050000D03*
%TD*%
%TO.C,FID1*%
X178610000Y-94690000D03*
%TD*%
%TO.C,FID1*%
X178610000Y-73870000D03*
%TD*%
%TO.C,FID1*%
X178610000Y-53050000D03*
%TD*%
%TO.C,FID1*%
X194350000Y-11410000D03*
%TD*%
%TO.C,FID1*%
X178610000Y-11410000D03*
%TD*%
%TO.C,FID1*%
X178610000Y-32230000D03*
%TD*%
%TO.C,FID1*%
X147130000Y-53050000D03*
%TD*%
%TO.C,FID1*%
X162870000Y-73870000D03*
%TD*%
%TO.C,FID1*%
X210090000Y-94690000D03*
%TD*%
%TO.C,FID1*%
X210090000Y-53050000D03*
%TD*%
%TO.C,FID1*%
X210090000Y-32230000D03*
%TD*%
%TO.C,FID1*%
X210090000Y-11410000D03*
%TD*%
%TO.C,FID1*%
X225830000Y-94690000D03*
%TD*%
%TO.C,FID1*%
X225830000Y-73870000D03*
%TD*%
%TO.C,FID1*%
X225830000Y-32230000D03*
%TD*%
%TO.C,FID1*%
X225830000Y-11410000D03*
%TD*%
%TO.C,FID1*%
X225830000Y-53050000D03*
%TD*%
D10*
%TO.C,*%
X226560000Y-7025000D03*
%TD*%
D19*
%TO.C,J1*%
X135890000Y-95250000D03*
X135890000Y-97790000D03*
X135890000Y-100330000D03*
X135890000Y-102870000D03*
X135890000Y-105410000D03*
X135890000Y-107950000D03*
X135890000Y-110490000D03*
X135890000Y-113030000D03*
%TD*%
%TO.C,J1*%
X135890000Y-74430000D03*
X135890000Y-76970000D03*
X135890000Y-79510000D03*
X135890000Y-82050000D03*
X135890000Y-84590000D03*
X135890000Y-87130000D03*
X135890000Y-89670000D03*
X135890000Y-92210000D03*
%TD*%
%TO.C,J1*%
X214590000Y-74430000D03*
X214590000Y-76970000D03*
X214590000Y-79510000D03*
X214590000Y-82050000D03*
X214590000Y-84590000D03*
X214590000Y-87130000D03*
X214590000Y-89670000D03*
X214590000Y-92210000D03*
%TD*%
%TO.C,J1*%
X214590000Y-32790000D03*
X214590000Y-35330000D03*
X214590000Y-37870000D03*
X214590000Y-40410000D03*
X214590000Y-42950000D03*
X214590000Y-45490000D03*
X214590000Y-48030000D03*
X214590000Y-50570000D03*
%TD*%
%TO.C,J1*%
X214590000Y-53610000D03*
X214590000Y-56150000D03*
X214590000Y-58690000D03*
X214590000Y-61230000D03*
X214590000Y-63770000D03*
X214590000Y-66310000D03*
X214590000Y-68850000D03*
X214590000Y-71390000D03*
%TD*%
%TO.C,J1*%
X214590000Y-11970000D03*
X214590000Y-14510000D03*
X214590000Y-17050000D03*
X214590000Y-19590000D03*
X214590000Y-22130000D03*
X214590000Y-24670000D03*
X214590000Y-27210000D03*
X214590000Y-29750000D03*
%TD*%
%TO.C,J1*%
X135890000Y-11970000D03*
X135890000Y-14510000D03*
X135890000Y-17050000D03*
X135890000Y-19590000D03*
X135890000Y-22130000D03*
X135890000Y-24670000D03*
X135890000Y-27210000D03*
X135890000Y-29750000D03*
%TD*%
%TO.C,J1*%
X167370000Y-53610000D03*
X167370000Y-56150000D03*
X167370000Y-58690000D03*
X167370000Y-61230000D03*
X167370000Y-63770000D03*
X167370000Y-66310000D03*
X167370000Y-68850000D03*
X167370000Y-71390000D03*
%TD*%
%TO.C,J1*%
X198850000Y-11970000D03*
X198850000Y-14510000D03*
X198850000Y-17050000D03*
X198850000Y-19590000D03*
X198850000Y-22130000D03*
X198850000Y-24670000D03*
X198850000Y-27210000D03*
X198850000Y-29750000D03*
%TD*%
%TO.C,J1*%
X183110000Y-95250000D03*
X183110000Y-97790000D03*
X183110000Y-100330000D03*
X183110000Y-102870000D03*
X183110000Y-105410000D03*
X183110000Y-107950000D03*
X183110000Y-110490000D03*
X183110000Y-113030000D03*
%TD*%
%TO.C,J1*%
X183110000Y-11970000D03*
X183110000Y-14510000D03*
X183110000Y-17050000D03*
X183110000Y-19590000D03*
X183110000Y-22130000D03*
X183110000Y-24670000D03*
X183110000Y-27210000D03*
X183110000Y-29750000D03*
%TD*%
%TO.C,J1*%
X151630000Y-32790000D03*
X151630000Y-35330000D03*
X151630000Y-37870000D03*
X151630000Y-40410000D03*
X151630000Y-42950000D03*
X151630000Y-45490000D03*
X151630000Y-48030000D03*
X151630000Y-50570000D03*
%TD*%
%TO.C,J1*%
X183110000Y-74430000D03*
X183110000Y-76970000D03*
X183110000Y-79510000D03*
X183110000Y-82050000D03*
X183110000Y-84590000D03*
X183110000Y-87130000D03*
X183110000Y-89670000D03*
X183110000Y-92210000D03*
%TD*%
%TO.C,J1*%
X151630000Y-95250000D03*
X151630000Y-97790000D03*
X151630000Y-100330000D03*
X151630000Y-102870000D03*
X151630000Y-105410000D03*
X151630000Y-107950000D03*
X151630000Y-110490000D03*
X151630000Y-113030000D03*
%TD*%
%TO.C,J1*%
X151630000Y-11970000D03*
X151630000Y-14510000D03*
X151630000Y-17050000D03*
X151630000Y-19590000D03*
X151630000Y-22130000D03*
X151630000Y-24670000D03*
X151630000Y-27210000D03*
X151630000Y-29750000D03*
%TD*%
%TO.C,J1*%
X151630000Y-74430000D03*
X151630000Y-76970000D03*
X151630000Y-79510000D03*
X151630000Y-82050000D03*
X151630000Y-84590000D03*
X151630000Y-87130000D03*
X151630000Y-89670000D03*
X151630000Y-92210000D03*
%TD*%
%TO.C,J1*%
X167370000Y-95250000D03*
X167370000Y-97790000D03*
X167370000Y-100330000D03*
X167370000Y-102870000D03*
X167370000Y-105410000D03*
X167370000Y-107950000D03*
X167370000Y-110490000D03*
X167370000Y-113030000D03*
%TD*%
%TO.C,J1*%
X183110000Y-53610000D03*
X183110000Y-56150000D03*
X183110000Y-58690000D03*
X183110000Y-61230000D03*
X183110000Y-63770000D03*
X183110000Y-66310000D03*
X183110000Y-68850000D03*
X183110000Y-71390000D03*
%TD*%
%TO.C,J1*%
X135890000Y-32790000D03*
X135890000Y-35330000D03*
X135890000Y-37870000D03*
X135890000Y-40410000D03*
X135890000Y-42950000D03*
X135890000Y-45490000D03*
X135890000Y-48030000D03*
X135890000Y-50570000D03*
%TD*%
%TO.C,J1*%
X183110000Y-32790000D03*
X183110000Y-35330000D03*
X183110000Y-37870000D03*
X183110000Y-40410000D03*
X183110000Y-42950000D03*
X183110000Y-45490000D03*
X183110000Y-48030000D03*
X183110000Y-50570000D03*
%TD*%
%TO.C,J1*%
X151630000Y-53610000D03*
X151630000Y-56150000D03*
X151630000Y-58690000D03*
X151630000Y-61230000D03*
X151630000Y-63770000D03*
X151630000Y-66310000D03*
X151630000Y-68850000D03*
X151630000Y-71390000D03*
%TD*%
%TO.C,J1*%
X167370000Y-74430000D03*
X167370000Y-76970000D03*
X167370000Y-79510000D03*
X167370000Y-82050000D03*
X167370000Y-84590000D03*
X167370000Y-87130000D03*
X167370000Y-89670000D03*
X167370000Y-92210000D03*
%TD*%
%TO.C,J1*%
X167370000Y-32790000D03*
X167370000Y-35330000D03*
X167370000Y-37870000D03*
X167370000Y-40410000D03*
X167370000Y-42950000D03*
X167370000Y-45490000D03*
X167370000Y-48030000D03*
X167370000Y-50570000D03*
%TD*%
%TO.C,J1*%
X135890000Y-53610000D03*
X135890000Y-56150000D03*
X135890000Y-58690000D03*
X135890000Y-61230000D03*
X135890000Y-63770000D03*
X135890000Y-66310000D03*
X135890000Y-68850000D03*
X135890000Y-71390000D03*
%TD*%
%TO.C,J1*%
X198850000Y-95250000D03*
X198850000Y-97790000D03*
X198850000Y-100330000D03*
X198850000Y-102870000D03*
X198850000Y-105410000D03*
X198850000Y-107950000D03*
X198850000Y-110490000D03*
X198850000Y-113030000D03*
%TD*%
%TO.C,J1*%
X198850000Y-74430000D03*
X198850000Y-76970000D03*
X198850000Y-79510000D03*
X198850000Y-82050000D03*
X198850000Y-84590000D03*
X198850000Y-87130000D03*
X198850000Y-89670000D03*
X198850000Y-92210000D03*
%TD*%
%TO.C,J1*%
X198850000Y-53610000D03*
X198850000Y-56150000D03*
X198850000Y-58690000D03*
X198850000Y-61230000D03*
X198850000Y-63770000D03*
X198850000Y-66310000D03*
X198850000Y-68850000D03*
X198850000Y-71390000D03*
%TD*%
%TO.C,J1*%
X198850000Y-32790000D03*
X198850000Y-35330000D03*
X198850000Y-37870000D03*
X198850000Y-40410000D03*
X198850000Y-42950000D03*
X198850000Y-45490000D03*
X198850000Y-48030000D03*
X198850000Y-50570000D03*
%TD*%
%TO.C,J1*%
X214590000Y-95250000D03*
X214590000Y-97790000D03*
X214590000Y-100330000D03*
X214590000Y-102870000D03*
X214590000Y-105410000D03*
X214590000Y-107950000D03*
X214590000Y-110490000D03*
X214590000Y-113030000D03*
%TD*%
%TO.C,J1*%
X167370000Y-11970000D03*
X167370000Y-14510000D03*
X167370000Y-17050000D03*
X167370000Y-19590000D03*
X167370000Y-22130000D03*
X167370000Y-24670000D03*
X167370000Y-27210000D03*
X167370000Y-29750000D03*
%TD*%
M02*
