%TF.GenerationSoftware,KiCad,Pcbnew,7.0.10*%
%TF.CreationDate,2024-02-23T15:38:17-07:00*%
%TF.ProjectId,SparkFun_Stepper_Motor_Breakout_TC78H670FTG_panelized,53706172-6b46-4756-9e5f-537465707065,rev?*%
%TF.SameCoordinates,Original*%
%TF.FileFunction,Soldermask,Bot*%
%TF.FilePolarity,Negative*%
%FSLAX46Y46*%
G04 Gerber Fmt 4.6, Leading zero omitted, Abs format (unit mm)*
G04 Created by KiCad (PCBNEW 7.0.10) date 2024-02-23 15:38:17*
%MOMM*%
%LPD*%
G01*
G04 APERTURE LIST*
%TA.AperFunction,Profile*%
%ADD10C,0.100000*%
%TD*%
%ADD11C,0.500000*%
%ADD12C,0.250000*%
G04 APERTURE END LIST*
D10*
X197580000Y-10700000D02*
X212820000Y-10700000D01*
X212820000Y-31020000D01*
X197580000Y-31020000D01*
X197580000Y-10700000D01*
X197580000Y-73160000D02*
X212820000Y-73160000D01*
X212820000Y-93480000D01*
X197580000Y-93480000D01*
X197580000Y-73160000D01*
X150360000Y-52340000D02*
X165600000Y-52340000D01*
X165600000Y-72660000D01*
X150360000Y-72660000D01*
X150360000Y-52340000D01*
X181840000Y-93980000D02*
X197080000Y-93980000D01*
X197080000Y-114300000D01*
X181840000Y-114300000D01*
X181840000Y-93980000D01*
X197580000Y-52340000D02*
X212820000Y-52340000D01*
X212820000Y-72660000D01*
X197580000Y-72660000D01*
X197580000Y-52340000D01*
X127770000Y-121150000D02*
X127770000Y-3850000D01*
X134620000Y-31520000D02*
X149860000Y-31520000D01*
X149860000Y-51840000D01*
X134620000Y-51840000D01*
X134620000Y-31520000D01*
X134620000Y-73160000D02*
X149860000Y-73160000D01*
X149860000Y-93480000D01*
X134620000Y-93480000D01*
X134620000Y-73160000D01*
X197580000Y-31520000D02*
X212820000Y-31520000D01*
X212820000Y-51840000D01*
X197580000Y-51840000D01*
X197580000Y-31520000D01*
X166100000Y-10700000D02*
X181340000Y-10700000D01*
X181340000Y-31020000D01*
X166100000Y-31020000D01*
X166100000Y-10700000D01*
X213320000Y-10700000D02*
X228560000Y-10700000D01*
X228560000Y-31020000D01*
X213320000Y-31020000D01*
X213320000Y-10700000D01*
X166100000Y-93980000D02*
X181340000Y-93980000D01*
X181340000Y-114300000D01*
X166100000Y-114300000D01*
X166100000Y-93980000D01*
X213320000Y-93980000D02*
X228560000Y-93980000D01*
X228560000Y-114300000D01*
X213320000Y-114300000D01*
X213320000Y-93980000D01*
X127770000Y-3850000D02*
X235410000Y-3850000D01*
X134620000Y-52340000D02*
X149860000Y-52340000D01*
X149860000Y-72660000D01*
X134620000Y-72660000D01*
X134620000Y-52340000D01*
X181840000Y-73160000D02*
X197080000Y-73160000D01*
X197080000Y-93480000D01*
X181840000Y-93480000D01*
X181840000Y-73160000D01*
X235410000Y-3850000D02*
X235410000Y-121150000D01*
X134620000Y-93980000D02*
X149860000Y-93980000D01*
X149860000Y-114300000D01*
X134620000Y-114300000D01*
X134620000Y-93980000D01*
X166100000Y-73160000D02*
X181340000Y-73160000D01*
X181340000Y-93480000D01*
X166100000Y-93480000D01*
X166100000Y-73160000D01*
X134120000Y-114800000D02*
X134120000Y-10200000D01*
X166100000Y-52340000D02*
X181340000Y-52340000D01*
X181340000Y-72660000D01*
X166100000Y-72660000D01*
X166100000Y-52340000D01*
X181840000Y-31520000D02*
X197080000Y-31520000D01*
X197080000Y-51840000D01*
X181840000Y-51840000D01*
X181840000Y-31520000D01*
X229060000Y-10200000D02*
X229060000Y-114800000D01*
X181840000Y-52340000D02*
X197080000Y-52340000D01*
X197080000Y-72660000D01*
X181840000Y-72660000D01*
X181840000Y-52340000D01*
X181840000Y-10700000D02*
X197080000Y-10700000D01*
X197080000Y-31020000D01*
X181840000Y-31020000D01*
X181840000Y-10700000D01*
X213320000Y-31520000D02*
X228560000Y-31520000D01*
X228560000Y-51840000D01*
X213320000Y-51840000D01*
X213320000Y-31520000D01*
X150360000Y-93980000D02*
X165600000Y-93980000D01*
X165600000Y-114300000D01*
X150360000Y-114300000D01*
X150360000Y-93980000D01*
X197580000Y-93980000D02*
X212820000Y-93980000D01*
X212820000Y-114300000D01*
X197580000Y-114300000D01*
X197580000Y-93980000D01*
X134120000Y-10200000D02*
X229060000Y-10200000D01*
X150360000Y-10700000D02*
X165600000Y-10700000D01*
X165600000Y-31020000D01*
X150360000Y-31020000D01*
X150360000Y-10700000D01*
X213320000Y-52340000D02*
X228560000Y-52340000D01*
X228560000Y-72660000D01*
X213320000Y-72660000D01*
X213320000Y-52340000D01*
X150360000Y-31520000D02*
X165600000Y-31520000D01*
X165600000Y-51840000D01*
X150360000Y-51840000D01*
X150360000Y-31520000D01*
X166100000Y-31520000D02*
X181340000Y-31520000D01*
X181340000Y-51840000D01*
X166100000Y-51840000D01*
X166100000Y-31520000D01*
X229060000Y-114800000D02*
X134120000Y-114800000D01*
X213320000Y-73160000D02*
X228560000Y-73160000D01*
X228560000Y-93480000D01*
X213320000Y-93480000D01*
X213320000Y-73160000D01*
X134620000Y-10700000D02*
X149860000Y-10700000D01*
X149860000Y-31020000D01*
X134620000Y-31020000D01*
X134620000Y-10700000D01*
X150360000Y-73160000D02*
X165600000Y-73160000D01*
X165600000Y-93480000D01*
X150360000Y-93480000D01*
X150360000Y-73160000D01*
X235410000Y-121150000D02*
X127770000Y-121150000D01*
D11*
X127520000Y-114550000D02*
X235660000Y-114550000D01*
X165850000Y-3600000D02*
X165850000Y-121400000D01*
X228810000Y-3600000D02*
X228810000Y-121400000D01*
X127520000Y-93730000D02*
X235660000Y-93730000D01*
X197330000Y-3600000D02*
X197330000Y-121400000D01*
X127520000Y-31270000D02*
X235660000Y-31270000D01*
X213070000Y-3600000D02*
X213070000Y-121400000D01*
X150110000Y-3600000D02*
X150110000Y-121400000D01*
X127520000Y-72910000D02*
X235660000Y-72910000D01*
X127520000Y-52090000D02*
X235660000Y-52090000D01*
X181590000Y-3600000D02*
X181590000Y-121400000D01*
X134370000Y-3600000D02*
X134370000Y-121400000D01*
X127520000Y-10450000D02*
X235660000Y-10450000D01*
D12*
X111546003Y-113462238D02*
X112212669Y-115462238D01*
X112212669Y-115462238D02*
X112879336Y-113462238D01*
X113546003Y-114700333D02*
X115069813Y-114700333D01*
X115926955Y-115367000D02*
X116212669Y-115462238D01*
X116212669Y-115462238D02*
X116688860Y-115462238D01*
X116688860Y-115462238D02*
X116879336Y-115367000D01*
X116879336Y-115367000D02*
X116974574Y-115271761D01*
X116974574Y-115271761D02*
X117069812Y-115081285D01*
X117069812Y-115081285D02*
X117069812Y-114890809D01*
X117069812Y-114890809D02*
X116974574Y-114700333D01*
X116974574Y-114700333D02*
X116879336Y-114605095D01*
X116879336Y-114605095D02*
X116688860Y-114509857D01*
X116688860Y-114509857D02*
X116307907Y-114414619D01*
X116307907Y-114414619D02*
X116117431Y-114319380D01*
X116117431Y-114319380D02*
X116022193Y-114224142D01*
X116022193Y-114224142D02*
X115926955Y-114033666D01*
X115926955Y-114033666D02*
X115926955Y-113843190D01*
X115926955Y-113843190D02*
X116022193Y-113652714D01*
X116022193Y-113652714D02*
X116117431Y-113557476D01*
X116117431Y-113557476D02*
X116307907Y-113462238D01*
X116307907Y-113462238D02*
X116784098Y-113462238D01*
X116784098Y-113462238D02*
X117069812Y-113557476D01*
X119069812Y-115271761D02*
X118974574Y-115367000D01*
X118974574Y-115367000D02*
X118688860Y-115462238D01*
X118688860Y-115462238D02*
X118498384Y-115462238D01*
X118498384Y-115462238D02*
X118212669Y-115367000D01*
X118212669Y-115367000D02*
X118022193Y-115176523D01*
X118022193Y-115176523D02*
X117926955Y-114986047D01*
X117926955Y-114986047D02*
X117831717Y-114605095D01*
X117831717Y-114605095D02*
X117831717Y-114319380D01*
X117831717Y-114319380D02*
X117926955Y-113938428D01*
X117926955Y-113938428D02*
X118022193Y-113747952D01*
X118022193Y-113747952D02*
X118212669Y-113557476D01*
X118212669Y-113557476D02*
X118498384Y-113462238D01*
X118498384Y-113462238D02*
X118688860Y-113462238D01*
X118688860Y-113462238D02*
X118974574Y-113557476D01*
X118974574Y-113557476D02*
X119069812Y-113652714D01*
X120307907Y-113462238D02*
X120688860Y-113462238D01*
X120688860Y-113462238D02*
X120879336Y-113557476D01*
X120879336Y-113557476D02*
X121069812Y-113747952D01*
X121069812Y-113747952D02*
X121165050Y-114128904D01*
X121165050Y-114128904D02*
X121165050Y-114795571D01*
X121165050Y-114795571D02*
X121069812Y-115176523D01*
X121069812Y-115176523D02*
X120879336Y-115367000D01*
X120879336Y-115367000D02*
X120688860Y-115462238D01*
X120688860Y-115462238D02*
X120307907Y-115462238D01*
X120307907Y-115462238D02*
X120117431Y-115367000D01*
X120117431Y-115367000D02*
X119926955Y-115176523D01*
X119926955Y-115176523D02*
X119831717Y-114795571D01*
X119831717Y-114795571D02*
X119831717Y-114128904D01*
X119831717Y-114128904D02*
X119926955Y-113747952D01*
X119926955Y-113747952D02*
X120117431Y-113557476D01*
X120117431Y-113557476D02*
X120307907Y-113462238D01*
X123165050Y-115462238D02*
X122498383Y-114509857D01*
X122022193Y-115462238D02*
X122022193Y-113462238D01*
X122022193Y-113462238D02*
X122784098Y-113462238D01*
X122784098Y-113462238D02*
X122974574Y-113557476D01*
X122974574Y-113557476D02*
X123069812Y-113652714D01*
X123069812Y-113652714D02*
X123165050Y-113843190D01*
X123165050Y-113843190D02*
X123165050Y-114128904D01*
X123165050Y-114128904D02*
X123069812Y-114319380D01*
X123069812Y-114319380D02*
X122974574Y-114414619D01*
X122974574Y-114414619D02*
X122784098Y-114509857D01*
X122784098Y-114509857D02*
X122022193Y-114509857D01*
X124022193Y-114414619D02*
X124688860Y-114414619D01*
X124974574Y-115462238D02*
X124022193Y-115462238D01*
X124022193Y-115462238D02*
X124022193Y-113462238D01*
X124022193Y-113462238D02*
X124974574Y-113462238D01*
X111546003Y-9362238D02*
X112212669Y-11362238D01*
X112212669Y-11362238D02*
X112879336Y-9362238D01*
X113546003Y-10600333D02*
X115069813Y-10600333D01*
X115926955Y-11267000D02*
X116212669Y-11362238D01*
X116212669Y-11362238D02*
X116688860Y-11362238D01*
X116688860Y-11362238D02*
X116879336Y-11267000D01*
X116879336Y-11267000D02*
X116974574Y-11171761D01*
X116974574Y-11171761D02*
X117069812Y-10981285D01*
X117069812Y-10981285D02*
X117069812Y-10790809D01*
X117069812Y-10790809D02*
X116974574Y-10600333D01*
X116974574Y-10600333D02*
X116879336Y-10505095D01*
X116879336Y-10505095D02*
X116688860Y-10409857D01*
X116688860Y-10409857D02*
X116307907Y-10314619D01*
X116307907Y-10314619D02*
X116117431Y-10219380D01*
X116117431Y-10219380D02*
X116022193Y-10124142D01*
X116022193Y-10124142D02*
X115926955Y-9933666D01*
X115926955Y-9933666D02*
X115926955Y-9743190D01*
X115926955Y-9743190D02*
X116022193Y-9552714D01*
X116022193Y-9552714D02*
X116117431Y-9457476D01*
X116117431Y-9457476D02*
X116307907Y-9362238D01*
X116307907Y-9362238D02*
X116784098Y-9362238D01*
X116784098Y-9362238D02*
X117069812Y-9457476D01*
X119069812Y-11171761D02*
X118974574Y-11267000D01*
X118974574Y-11267000D02*
X118688860Y-11362238D01*
X118688860Y-11362238D02*
X118498384Y-11362238D01*
X118498384Y-11362238D02*
X118212669Y-11267000D01*
X118212669Y-11267000D02*
X118022193Y-11076523D01*
X118022193Y-11076523D02*
X117926955Y-10886047D01*
X117926955Y-10886047D02*
X117831717Y-10505095D01*
X117831717Y-10505095D02*
X117831717Y-10219380D01*
X117831717Y-10219380D02*
X117926955Y-9838428D01*
X117926955Y-9838428D02*
X118022193Y-9647952D01*
X118022193Y-9647952D02*
X118212669Y-9457476D01*
X118212669Y-9457476D02*
X118498384Y-9362238D01*
X118498384Y-9362238D02*
X118688860Y-9362238D01*
X118688860Y-9362238D02*
X118974574Y-9457476D01*
X118974574Y-9457476D02*
X119069812Y-9552714D01*
X120307907Y-9362238D02*
X120688860Y-9362238D01*
X120688860Y-9362238D02*
X120879336Y-9457476D01*
X120879336Y-9457476D02*
X121069812Y-9647952D01*
X121069812Y-9647952D02*
X121165050Y-10028904D01*
X121165050Y-10028904D02*
X121165050Y-10695571D01*
X121165050Y-10695571D02*
X121069812Y-11076523D01*
X121069812Y-11076523D02*
X120879336Y-11267000D01*
X120879336Y-11267000D02*
X120688860Y-11362238D01*
X120688860Y-11362238D02*
X120307907Y-11362238D01*
X120307907Y-11362238D02*
X120117431Y-11267000D01*
X120117431Y-11267000D02*
X119926955Y-11076523D01*
X119926955Y-11076523D02*
X119831717Y-10695571D01*
X119831717Y-10695571D02*
X119831717Y-10028904D01*
X119831717Y-10028904D02*
X119926955Y-9647952D01*
X119926955Y-9647952D02*
X120117431Y-9457476D01*
X120117431Y-9457476D02*
X120307907Y-9362238D01*
X123165050Y-11362238D02*
X122498383Y-10409857D01*
X122022193Y-11362238D02*
X122022193Y-9362238D01*
X122022193Y-9362238D02*
X122784098Y-9362238D01*
X122784098Y-9362238D02*
X122974574Y-9457476D01*
X122974574Y-9457476D02*
X123069812Y-9552714D01*
X123069812Y-9552714D02*
X123165050Y-9743190D01*
X123165050Y-9743190D02*
X123165050Y-10028904D01*
X123165050Y-10028904D02*
X123069812Y-10219380D01*
X123069812Y-10219380D02*
X122974574Y-10314619D01*
X122974574Y-10314619D02*
X122784098Y-10409857D01*
X122784098Y-10409857D02*
X122022193Y-10409857D01*
X124022193Y-10314619D02*
X124688860Y-10314619D01*
X124974574Y-11362238D02*
X124022193Y-11362238D01*
X124022193Y-11362238D02*
X124022193Y-9362238D01*
X124022193Y-9362238D02*
X124974574Y-9362238D01*
X180502238Y-1245050D02*
X182502238Y-578384D01*
X182502238Y-578384D02*
X180502238Y88282D01*
X181740333Y754949D02*
X181740333Y2278759D01*
X182407000Y3135901D02*
X182502238Y3421615D01*
X182502238Y3421615D02*
X182502238Y3897806D01*
X182502238Y3897806D02*
X182407000Y4088282D01*
X182407000Y4088282D02*
X182311761Y4183520D01*
X182311761Y4183520D02*
X182121285Y4278758D01*
X182121285Y4278758D02*
X181930809Y4278758D01*
X181930809Y4278758D02*
X181740333Y4183520D01*
X181740333Y4183520D02*
X181645095Y4088282D01*
X181645095Y4088282D02*
X181549857Y3897806D01*
X181549857Y3897806D02*
X181454619Y3516853D01*
X181454619Y3516853D02*
X181359380Y3326377D01*
X181359380Y3326377D02*
X181264142Y3231139D01*
X181264142Y3231139D02*
X181073666Y3135901D01*
X181073666Y3135901D02*
X180883190Y3135901D01*
X180883190Y3135901D02*
X180692714Y3231139D01*
X180692714Y3231139D02*
X180597476Y3326377D01*
X180597476Y3326377D02*
X180502238Y3516853D01*
X180502238Y3516853D02*
X180502238Y3993044D01*
X180502238Y3993044D02*
X180597476Y4278758D01*
X182311761Y6278758D02*
X182407000Y6183520D01*
X182407000Y6183520D02*
X182502238Y5897806D01*
X182502238Y5897806D02*
X182502238Y5707330D01*
X182502238Y5707330D02*
X182407000Y5421615D01*
X182407000Y5421615D02*
X182216523Y5231139D01*
X182216523Y5231139D02*
X182026047Y5135901D01*
X182026047Y5135901D02*
X181645095Y5040663D01*
X181645095Y5040663D02*
X181359380Y5040663D01*
X181359380Y5040663D02*
X180978428Y5135901D01*
X180978428Y5135901D02*
X180787952Y5231139D01*
X180787952Y5231139D02*
X180597476Y5421615D01*
X180597476Y5421615D02*
X180502238Y5707330D01*
X180502238Y5707330D02*
X180502238Y5897806D01*
X180502238Y5897806D02*
X180597476Y6183520D01*
X180597476Y6183520D02*
X180692714Y6278758D01*
X180502238Y7516853D02*
X180502238Y7897806D01*
X180502238Y7897806D02*
X180597476Y8088282D01*
X180597476Y8088282D02*
X180787952Y8278758D01*
X180787952Y8278758D02*
X181168904Y8373996D01*
X181168904Y8373996D02*
X181835571Y8373996D01*
X181835571Y8373996D02*
X182216523Y8278758D01*
X182216523Y8278758D02*
X182407000Y8088282D01*
X182407000Y8088282D02*
X182502238Y7897806D01*
X182502238Y7897806D02*
X182502238Y7516853D01*
X182502238Y7516853D02*
X182407000Y7326377D01*
X182407000Y7326377D02*
X182216523Y7135901D01*
X182216523Y7135901D02*
X181835571Y7040663D01*
X181835571Y7040663D02*
X181168904Y7040663D01*
X181168904Y7040663D02*
X180787952Y7135901D01*
X180787952Y7135901D02*
X180597476Y7326377D01*
X180597476Y7326377D02*
X180502238Y7516853D01*
X182502238Y10373996D02*
X181549857Y9707329D01*
X182502238Y9231139D02*
X180502238Y9231139D01*
X180502238Y9231139D02*
X180502238Y9993044D01*
X180502238Y9993044D02*
X180597476Y10183520D01*
X180597476Y10183520D02*
X180692714Y10278758D01*
X180692714Y10278758D02*
X180883190Y10373996D01*
X180883190Y10373996D02*
X181168904Y10373996D01*
X181168904Y10373996D02*
X181359380Y10278758D01*
X181359380Y10278758D02*
X181454619Y10183520D01*
X181454619Y10183520D02*
X181549857Y9993044D01*
X181549857Y9993044D02*
X181549857Y9231139D01*
X181454619Y11231139D02*
X181454619Y11897806D01*
X182502238Y12183520D02*
X182502238Y11231139D01*
X182502238Y11231139D02*
X180502238Y11231139D01*
X180502238Y11231139D02*
X180502238Y12183520D01*
X111546003Y-51002238D02*
X112212669Y-53002238D01*
X112212669Y-53002238D02*
X112879336Y-51002238D01*
X113546003Y-52240333D02*
X115069813Y-52240333D01*
X115926955Y-52907000D02*
X116212669Y-53002238D01*
X116212669Y-53002238D02*
X116688860Y-53002238D01*
X116688860Y-53002238D02*
X116879336Y-52907000D01*
X116879336Y-52907000D02*
X116974574Y-52811761D01*
X116974574Y-52811761D02*
X117069812Y-52621285D01*
X117069812Y-52621285D02*
X117069812Y-52430809D01*
X117069812Y-52430809D02*
X116974574Y-52240333D01*
X116974574Y-52240333D02*
X116879336Y-52145095D01*
X116879336Y-52145095D02*
X116688860Y-52049857D01*
X116688860Y-52049857D02*
X116307907Y-51954619D01*
X116307907Y-51954619D02*
X116117431Y-51859380D01*
X116117431Y-51859380D02*
X116022193Y-51764142D01*
X116022193Y-51764142D02*
X115926955Y-51573666D01*
X115926955Y-51573666D02*
X115926955Y-51383190D01*
X115926955Y-51383190D02*
X116022193Y-51192714D01*
X116022193Y-51192714D02*
X116117431Y-51097476D01*
X116117431Y-51097476D02*
X116307907Y-51002238D01*
X116307907Y-51002238D02*
X116784098Y-51002238D01*
X116784098Y-51002238D02*
X117069812Y-51097476D01*
X119069812Y-52811761D02*
X118974574Y-52907000D01*
X118974574Y-52907000D02*
X118688860Y-53002238D01*
X118688860Y-53002238D02*
X118498384Y-53002238D01*
X118498384Y-53002238D02*
X118212669Y-52907000D01*
X118212669Y-52907000D02*
X118022193Y-52716523D01*
X118022193Y-52716523D02*
X117926955Y-52526047D01*
X117926955Y-52526047D02*
X117831717Y-52145095D01*
X117831717Y-52145095D02*
X117831717Y-51859380D01*
X117831717Y-51859380D02*
X117926955Y-51478428D01*
X117926955Y-51478428D02*
X118022193Y-51287952D01*
X118022193Y-51287952D02*
X118212669Y-51097476D01*
X118212669Y-51097476D02*
X118498384Y-51002238D01*
X118498384Y-51002238D02*
X118688860Y-51002238D01*
X118688860Y-51002238D02*
X118974574Y-51097476D01*
X118974574Y-51097476D02*
X119069812Y-51192714D01*
X120307907Y-51002238D02*
X120688860Y-51002238D01*
X120688860Y-51002238D02*
X120879336Y-51097476D01*
X120879336Y-51097476D02*
X121069812Y-51287952D01*
X121069812Y-51287952D02*
X121165050Y-51668904D01*
X121165050Y-51668904D02*
X121165050Y-52335571D01*
X121165050Y-52335571D02*
X121069812Y-52716523D01*
X121069812Y-52716523D02*
X120879336Y-52907000D01*
X120879336Y-52907000D02*
X120688860Y-53002238D01*
X120688860Y-53002238D02*
X120307907Y-53002238D01*
X120307907Y-53002238D02*
X120117431Y-52907000D01*
X120117431Y-52907000D02*
X119926955Y-52716523D01*
X119926955Y-52716523D02*
X119831717Y-52335571D01*
X119831717Y-52335571D02*
X119831717Y-51668904D01*
X119831717Y-51668904D02*
X119926955Y-51287952D01*
X119926955Y-51287952D02*
X120117431Y-51097476D01*
X120117431Y-51097476D02*
X120307907Y-51002238D01*
X123165050Y-53002238D02*
X122498383Y-52049857D01*
X122022193Y-53002238D02*
X122022193Y-51002238D01*
X122022193Y-51002238D02*
X122784098Y-51002238D01*
X122784098Y-51002238D02*
X122974574Y-51097476D01*
X122974574Y-51097476D02*
X123069812Y-51192714D01*
X123069812Y-51192714D02*
X123165050Y-51383190D01*
X123165050Y-51383190D02*
X123165050Y-51668904D01*
X123165050Y-51668904D02*
X123069812Y-51859380D01*
X123069812Y-51859380D02*
X122974574Y-51954619D01*
X122974574Y-51954619D02*
X122784098Y-52049857D01*
X122784098Y-52049857D02*
X122022193Y-52049857D01*
X124022193Y-51954619D02*
X124688860Y-51954619D01*
X124974574Y-53002238D02*
X124022193Y-53002238D01*
X124022193Y-53002238D02*
X124022193Y-51002238D01*
X124022193Y-51002238D02*
X124974574Y-51002238D01*
X149022238Y-1245050D02*
X151022238Y-578384D01*
X151022238Y-578384D02*
X149022238Y88282D01*
X150260333Y754949D02*
X150260333Y2278759D01*
X150927000Y3135901D02*
X151022238Y3421615D01*
X151022238Y3421615D02*
X151022238Y3897806D01*
X151022238Y3897806D02*
X150927000Y4088282D01*
X150927000Y4088282D02*
X150831761Y4183520D01*
X150831761Y4183520D02*
X150641285Y4278758D01*
X150641285Y4278758D02*
X150450809Y4278758D01*
X150450809Y4278758D02*
X150260333Y4183520D01*
X150260333Y4183520D02*
X150165095Y4088282D01*
X150165095Y4088282D02*
X150069857Y3897806D01*
X150069857Y3897806D02*
X149974619Y3516853D01*
X149974619Y3516853D02*
X149879380Y3326377D01*
X149879380Y3326377D02*
X149784142Y3231139D01*
X149784142Y3231139D02*
X149593666Y3135901D01*
X149593666Y3135901D02*
X149403190Y3135901D01*
X149403190Y3135901D02*
X149212714Y3231139D01*
X149212714Y3231139D02*
X149117476Y3326377D01*
X149117476Y3326377D02*
X149022238Y3516853D01*
X149022238Y3516853D02*
X149022238Y3993044D01*
X149022238Y3993044D02*
X149117476Y4278758D01*
X150831761Y6278758D02*
X150927000Y6183520D01*
X150927000Y6183520D02*
X151022238Y5897806D01*
X151022238Y5897806D02*
X151022238Y5707330D01*
X151022238Y5707330D02*
X150927000Y5421615D01*
X150927000Y5421615D02*
X150736523Y5231139D01*
X150736523Y5231139D02*
X150546047Y5135901D01*
X150546047Y5135901D02*
X150165095Y5040663D01*
X150165095Y5040663D02*
X149879380Y5040663D01*
X149879380Y5040663D02*
X149498428Y5135901D01*
X149498428Y5135901D02*
X149307952Y5231139D01*
X149307952Y5231139D02*
X149117476Y5421615D01*
X149117476Y5421615D02*
X149022238Y5707330D01*
X149022238Y5707330D02*
X149022238Y5897806D01*
X149022238Y5897806D02*
X149117476Y6183520D01*
X149117476Y6183520D02*
X149212714Y6278758D01*
X149022238Y7516853D02*
X149022238Y7897806D01*
X149022238Y7897806D02*
X149117476Y8088282D01*
X149117476Y8088282D02*
X149307952Y8278758D01*
X149307952Y8278758D02*
X149688904Y8373996D01*
X149688904Y8373996D02*
X150355571Y8373996D01*
X150355571Y8373996D02*
X150736523Y8278758D01*
X150736523Y8278758D02*
X150927000Y8088282D01*
X150927000Y8088282D02*
X151022238Y7897806D01*
X151022238Y7897806D02*
X151022238Y7516853D01*
X151022238Y7516853D02*
X150927000Y7326377D01*
X150927000Y7326377D02*
X150736523Y7135901D01*
X150736523Y7135901D02*
X150355571Y7040663D01*
X150355571Y7040663D02*
X149688904Y7040663D01*
X149688904Y7040663D02*
X149307952Y7135901D01*
X149307952Y7135901D02*
X149117476Y7326377D01*
X149117476Y7326377D02*
X149022238Y7516853D01*
X151022238Y10373996D02*
X150069857Y9707329D01*
X151022238Y9231139D02*
X149022238Y9231139D01*
X149022238Y9231139D02*
X149022238Y9993044D01*
X149022238Y9993044D02*
X149117476Y10183520D01*
X149117476Y10183520D02*
X149212714Y10278758D01*
X149212714Y10278758D02*
X149403190Y10373996D01*
X149403190Y10373996D02*
X149688904Y10373996D01*
X149688904Y10373996D02*
X149879380Y10278758D01*
X149879380Y10278758D02*
X149974619Y10183520D01*
X149974619Y10183520D02*
X150069857Y9993044D01*
X150069857Y9993044D02*
X150069857Y9231139D01*
X149974619Y11231139D02*
X149974619Y11897806D01*
X151022238Y12183520D02*
X151022238Y11231139D01*
X151022238Y11231139D02*
X149022238Y11231139D01*
X149022238Y11231139D02*
X149022238Y12183520D01*
X211982238Y-1245050D02*
X213982238Y-578384D01*
X213982238Y-578384D02*
X211982238Y88282D01*
X213220333Y754949D02*
X213220333Y2278759D01*
X213887000Y3135901D02*
X213982238Y3421615D01*
X213982238Y3421615D02*
X213982238Y3897806D01*
X213982238Y3897806D02*
X213887000Y4088282D01*
X213887000Y4088282D02*
X213791761Y4183520D01*
X213791761Y4183520D02*
X213601285Y4278758D01*
X213601285Y4278758D02*
X213410809Y4278758D01*
X213410809Y4278758D02*
X213220333Y4183520D01*
X213220333Y4183520D02*
X213125095Y4088282D01*
X213125095Y4088282D02*
X213029857Y3897806D01*
X213029857Y3897806D02*
X212934619Y3516853D01*
X212934619Y3516853D02*
X212839380Y3326377D01*
X212839380Y3326377D02*
X212744142Y3231139D01*
X212744142Y3231139D02*
X212553666Y3135901D01*
X212553666Y3135901D02*
X212363190Y3135901D01*
X212363190Y3135901D02*
X212172714Y3231139D01*
X212172714Y3231139D02*
X212077476Y3326377D01*
X212077476Y3326377D02*
X211982238Y3516853D01*
X211982238Y3516853D02*
X211982238Y3993044D01*
X211982238Y3993044D02*
X212077476Y4278758D01*
X213791761Y6278758D02*
X213887000Y6183520D01*
X213887000Y6183520D02*
X213982238Y5897806D01*
X213982238Y5897806D02*
X213982238Y5707330D01*
X213982238Y5707330D02*
X213887000Y5421615D01*
X213887000Y5421615D02*
X213696523Y5231139D01*
X213696523Y5231139D02*
X213506047Y5135901D01*
X213506047Y5135901D02*
X213125095Y5040663D01*
X213125095Y5040663D02*
X212839380Y5040663D01*
X212839380Y5040663D02*
X212458428Y5135901D01*
X212458428Y5135901D02*
X212267952Y5231139D01*
X212267952Y5231139D02*
X212077476Y5421615D01*
X212077476Y5421615D02*
X211982238Y5707330D01*
X211982238Y5707330D02*
X211982238Y5897806D01*
X211982238Y5897806D02*
X212077476Y6183520D01*
X212077476Y6183520D02*
X212172714Y6278758D01*
X211982238Y7516853D02*
X211982238Y7897806D01*
X211982238Y7897806D02*
X212077476Y8088282D01*
X212077476Y8088282D02*
X212267952Y8278758D01*
X212267952Y8278758D02*
X212648904Y8373996D01*
X212648904Y8373996D02*
X213315571Y8373996D01*
X213315571Y8373996D02*
X213696523Y8278758D01*
X213696523Y8278758D02*
X213887000Y8088282D01*
X213887000Y8088282D02*
X213982238Y7897806D01*
X213982238Y7897806D02*
X213982238Y7516853D01*
X213982238Y7516853D02*
X213887000Y7326377D01*
X213887000Y7326377D02*
X213696523Y7135901D01*
X213696523Y7135901D02*
X213315571Y7040663D01*
X213315571Y7040663D02*
X212648904Y7040663D01*
X212648904Y7040663D02*
X212267952Y7135901D01*
X212267952Y7135901D02*
X212077476Y7326377D01*
X212077476Y7326377D02*
X211982238Y7516853D01*
X213982238Y10373996D02*
X213029857Y9707329D01*
X213982238Y9231139D02*
X211982238Y9231139D01*
X211982238Y9231139D02*
X211982238Y9993044D01*
X211982238Y9993044D02*
X212077476Y10183520D01*
X212077476Y10183520D02*
X212172714Y10278758D01*
X212172714Y10278758D02*
X212363190Y10373996D01*
X212363190Y10373996D02*
X212648904Y10373996D01*
X212648904Y10373996D02*
X212839380Y10278758D01*
X212839380Y10278758D02*
X212934619Y10183520D01*
X212934619Y10183520D02*
X213029857Y9993044D01*
X213029857Y9993044D02*
X213029857Y9231139D01*
X212934619Y11231139D02*
X212934619Y11897806D01*
X213982238Y12183520D02*
X213982238Y11231139D01*
X213982238Y11231139D02*
X211982238Y11231139D01*
X211982238Y11231139D02*
X211982238Y12183520D01*
X164762238Y-1245050D02*
X166762238Y-578384D01*
X166762238Y-578384D02*
X164762238Y88282D01*
X166000333Y754949D02*
X166000333Y2278759D01*
X166667000Y3135901D02*
X166762238Y3421615D01*
X166762238Y3421615D02*
X166762238Y3897806D01*
X166762238Y3897806D02*
X166667000Y4088282D01*
X166667000Y4088282D02*
X166571761Y4183520D01*
X166571761Y4183520D02*
X166381285Y4278758D01*
X166381285Y4278758D02*
X166190809Y4278758D01*
X166190809Y4278758D02*
X166000333Y4183520D01*
X166000333Y4183520D02*
X165905095Y4088282D01*
X165905095Y4088282D02*
X165809857Y3897806D01*
X165809857Y3897806D02*
X165714619Y3516853D01*
X165714619Y3516853D02*
X165619380Y3326377D01*
X165619380Y3326377D02*
X165524142Y3231139D01*
X165524142Y3231139D02*
X165333666Y3135901D01*
X165333666Y3135901D02*
X165143190Y3135901D01*
X165143190Y3135901D02*
X164952714Y3231139D01*
X164952714Y3231139D02*
X164857476Y3326377D01*
X164857476Y3326377D02*
X164762238Y3516853D01*
X164762238Y3516853D02*
X164762238Y3993044D01*
X164762238Y3993044D02*
X164857476Y4278758D01*
X166571761Y6278758D02*
X166667000Y6183520D01*
X166667000Y6183520D02*
X166762238Y5897806D01*
X166762238Y5897806D02*
X166762238Y5707330D01*
X166762238Y5707330D02*
X166667000Y5421615D01*
X166667000Y5421615D02*
X166476523Y5231139D01*
X166476523Y5231139D02*
X166286047Y5135901D01*
X166286047Y5135901D02*
X165905095Y5040663D01*
X165905095Y5040663D02*
X165619380Y5040663D01*
X165619380Y5040663D02*
X165238428Y5135901D01*
X165238428Y5135901D02*
X165047952Y5231139D01*
X165047952Y5231139D02*
X164857476Y5421615D01*
X164857476Y5421615D02*
X164762238Y5707330D01*
X164762238Y5707330D02*
X164762238Y5897806D01*
X164762238Y5897806D02*
X164857476Y6183520D01*
X164857476Y6183520D02*
X164952714Y6278758D01*
X164762238Y7516853D02*
X164762238Y7897806D01*
X164762238Y7897806D02*
X164857476Y8088282D01*
X164857476Y8088282D02*
X165047952Y8278758D01*
X165047952Y8278758D02*
X165428904Y8373996D01*
X165428904Y8373996D02*
X166095571Y8373996D01*
X166095571Y8373996D02*
X166476523Y8278758D01*
X166476523Y8278758D02*
X166667000Y8088282D01*
X166667000Y8088282D02*
X166762238Y7897806D01*
X166762238Y7897806D02*
X166762238Y7516853D01*
X166762238Y7516853D02*
X166667000Y7326377D01*
X166667000Y7326377D02*
X166476523Y7135901D01*
X166476523Y7135901D02*
X166095571Y7040663D01*
X166095571Y7040663D02*
X165428904Y7040663D01*
X165428904Y7040663D02*
X165047952Y7135901D01*
X165047952Y7135901D02*
X164857476Y7326377D01*
X164857476Y7326377D02*
X164762238Y7516853D01*
X166762238Y10373996D02*
X165809857Y9707329D01*
X166762238Y9231139D02*
X164762238Y9231139D01*
X164762238Y9231139D02*
X164762238Y9993044D01*
X164762238Y9993044D02*
X164857476Y10183520D01*
X164857476Y10183520D02*
X164952714Y10278758D01*
X164952714Y10278758D02*
X165143190Y10373996D01*
X165143190Y10373996D02*
X165428904Y10373996D01*
X165428904Y10373996D02*
X165619380Y10278758D01*
X165619380Y10278758D02*
X165714619Y10183520D01*
X165714619Y10183520D02*
X165809857Y9993044D01*
X165809857Y9993044D02*
X165809857Y9231139D01*
X165714619Y11231139D02*
X165714619Y11897806D01*
X166762238Y12183520D02*
X166762238Y11231139D01*
X166762238Y11231139D02*
X164762238Y11231139D01*
X164762238Y11231139D02*
X164762238Y12183520D01*
X227722238Y-1245050D02*
X229722238Y-578384D01*
X229722238Y-578384D02*
X227722238Y88282D01*
X228960333Y754949D02*
X228960333Y2278759D01*
X229627000Y3135901D02*
X229722238Y3421615D01*
X229722238Y3421615D02*
X229722238Y3897806D01*
X229722238Y3897806D02*
X229627000Y4088282D01*
X229627000Y4088282D02*
X229531761Y4183520D01*
X229531761Y4183520D02*
X229341285Y4278758D01*
X229341285Y4278758D02*
X229150809Y4278758D01*
X229150809Y4278758D02*
X228960333Y4183520D01*
X228960333Y4183520D02*
X228865095Y4088282D01*
X228865095Y4088282D02*
X228769857Y3897806D01*
X228769857Y3897806D02*
X228674619Y3516853D01*
X228674619Y3516853D02*
X228579380Y3326377D01*
X228579380Y3326377D02*
X228484142Y3231139D01*
X228484142Y3231139D02*
X228293666Y3135901D01*
X228293666Y3135901D02*
X228103190Y3135901D01*
X228103190Y3135901D02*
X227912714Y3231139D01*
X227912714Y3231139D02*
X227817476Y3326377D01*
X227817476Y3326377D02*
X227722238Y3516853D01*
X227722238Y3516853D02*
X227722238Y3993044D01*
X227722238Y3993044D02*
X227817476Y4278758D01*
X229531761Y6278758D02*
X229627000Y6183520D01*
X229627000Y6183520D02*
X229722238Y5897806D01*
X229722238Y5897806D02*
X229722238Y5707330D01*
X229722238Y5707330D02*
X229627000Y5421615D01*
X229627000Y5421615D02*
X229436523Y5231139D01*
X229436523Y5231139D02*
X229246047Y5135901D01*
X229246047Y5135901D02*
X228865095Y5040663D01*
X228865095Y5040663D02*
X228579380Y5040663D01*
X228579380Y5040663D02*
X228198428Y5135901D01*
X228198428Y5135901D02*
X228007952Y5231139D01*
X228007952Y5231139D02*
X227817476Y5421615D01*
X227817476Y5421615D02*
X227722238Y5707330D01*
X227722238Y5707330D02*
X227722238Y5897806D01*
X227722238Y5897806D02*
X227817476Y6183520D01*
X227817476Y6183520D02*
X227912714Y6278758D01*
X227722238Y7516853D02*
X227722238Y7897806D01*
X227722238Y7897806D02*
X227817476Y8088282D01*
X227817476Y8088282D02*
X228007952Y8278758D01*
X228007952Y8278758D02*
X228388904Y8373996D01*
X228388904Y8373996D02*
X229055571Y8373996D01*
X229055571Y8373996D02*
X229436523Y8278758D01*
X229436523Y8278758D02*
X229627000Y8088282D01*
X229627000Y8088282D02*
X229722238Y7897806D01*
X229722238Y7897806D02*
X229722238Y7516853D01*
X229722238Y7516853D02*
X229627000Y7326377D01*
X229627000Y7326377D02*
X229436523Y7135901D01*
X229436523Y7135901D02*
X229055571Y7040663D01*
X229055571Y7040663D02*
X228388904Y7040663D01*
X228388904Y7040663D02*
X228007952Y7135901D01*
X228007952Y7135901D02*
X227817476Y7326377D01*
X227817476Y7326377D02*
X227722238Y7516853D01*
X229722238Y10373996D02*
X228769857Y9707329D01*
X229722238Y9231139D02*
X227722238Y9231139D01*
X227722238Y9231139D02*
X227722238Y9993044D01*
X227722238Y9993044D02*
X227817476Y10183520D01*
X227817476Y10183520D02*
X227912714Y10278758D01*
X227912714Y10278758D02*
X228103190Y10373996D01*
X228103190Y10373996D02*
X228388904Y10373996D01*
X228388904Y10373996D02*
X228579380Y10278758D01*
X228579380Y10278758D02*
X228674619Y10183520D01*
X228674619Y10183520D02*
X228769857Y9993044D01*
X228769857Y9993044D02*
X228769857Y9231139D01*
X228674619Y11231139D02*
X228674619Y11897806D01*
X229722238Y12183520D02*
X229722238Y11231139D01*
X229722238Y11231139D02*
X227722238Y11231139D01*
X227722238Y11231139D02*
X227722238Y12183520D01*
X111546003Y-71822238D02*
X112212669Y-73822238D01*
X112212669Y-73822238D02*
X112879336Y-71822238D01*
X113546003Y-73060333D02*
X115069813Y-73060333D01*
X115926955Y-73727000D02*
X116212669Y-73822238D01*
X116212669Y-73822238D02*
X116688860Y-73822238D01*
X116688860Y-73822238D02*
X116879336Y-73727000D01*
X116879336Y-73727000D02*
X116974574Y-73631761D01*
X116974574Y-73631761D02*
X117069812Y-73441285D01*
X117069812Y-73441285D02*
X117069812Y-73250809D01*
X117069812Y-73250809D02*
X116974574Y-73060333D01*
X116974574Y-73060333D02*
X116879336Y-72965095D01*
X116879336Y-72965095D02*
X116688860Y-72869857D01*
X116688860Y-72869857D02*
X116307907Y-72774619D01*
X116307907Y-72774619D02*
X116117431Y-72679380D01*
X116117431Y-72679380D02*
X116022193Y-72584142D01*
X116022193Y-72584142D02*
X115926955Y-72393666D01*
X115926955Y-72393666D02*
X115926955Y-72203190D01*
X115926955Y-72203190D02*
X116022193Y-72012714D01*
X116022193Y-72012714D02*
X116117431Y-71917476D01*
X116117431Y-71917476D02*
X116307907Y-71822238D01*
X116307907Y-71822238D02*
X116784098Y-71822238D01*
X116784098Y-71822238D02*
X117069812Y-71917476D01*
X119069812Y-73631761D02*
X118974574Y-73727000D01*
X118974574Y-73727000D02*
X118688860Y-73822238D01*
X118688860Y-73822238D02*
X118498384Y-73822238D01*
X118498384Y-73822238D02*
X118212669Y-73727000D01*
X118212669Y-73727000D02*
X118022193Y-73536523D01*
X118022193Y-73536523D02*
X117926955Y-73346047D01*
X117926955Y-73346047D02*
X117831717Y-72965095D01*
X117831717Y-72965095D02*
X117831717Y-72679380D01*
X117831717Y-72679380D02*
X117926955Y-72298428D01*
X117926955Y-72298428D02*
X118022193Y-72107952D01*
X118022193Y-72107952D02*
X118212669Y-71917476D01*
X118212669Y-71917476D02*
X118498384Y-71822238D01*
X118498384Y-71822238D02*
X118688860Y-71822238D01*
X118688860Y-71822238D02*
X118974574Y-71917476D01*
X118974574Y-71917476D02*
X119069812Y-72012714D01*
X120307907Y-71822238D02*
X120688860Y-71822238D01*
X120688860Y-71822238D02*
X120879336Y-71917476D01*
X120879336Y-71917476D02*
X121069812Y-72107952D01*
X121069812Y-72107952D02*
X121165050Y-72488904D01*
X121165050Y-72488904D02*
X121165050Y-73155571D01*
X121165050Y-73155571D02*
X121069812Y-73536523D01*
X121069812Y-73536523D02*
X120879336Y-73727000D01*
X120879336Y-73727000D02*
X120688860Y-73822238D01*
X120688860Y-73822238D02*
X120307907Y-73822238D01*
X120307907Y-73822238D02*
X120117431Y-73727000D01*
X120117431Y-73727000D02*
X119926955Y-73536523D01*
X119926955Y-73536523D02*
X119831717Y-73155571D01*
X119831717Y-73155571D02*
X119831717Y-72488904D01*
X119831717Y-72488904D02*
X119926955Y-72107952D01*
X119926955Y-72107952D02*
X120117431Y-71917476D01*
X120117431Y-71917476D02*
X120307907Y-71822238D01*
X123165050Y-73822238D02*
X122498383Y-72869857D01*
X122022193Y-73822238D02*
X122022193Y-71822238D01*
X122022193Y-71822238D02*
X122784098Y-71822238D01*
X122784098Y-71822238D02*
X122974574Y-71917476D01*
X122974574Y-71917476D02*
X123069812Y-72012714D01*
X123069812Y-72012714D02*
X123165050Y-72203190D01*
X123165050Y-72203190D02*
X123165050Y-72488904D01*
X123165050Y-72488904D02*
X123069812Y-72679380D01*
X123069812Y-72679380D02*
X122974574Y-72774619D01*
X122974574Y-72774619D02*
X122784098Y-72869857D01*
X122784098Y-72869857D02*
X122022193Y-72869857D01*
X124022193Y-72774619D02*
X124688860Y-72774619D01*
X124974574Y-73822238D02*
X124022193Y-73822238D01*
X124022193Y-73822238D02*
X124022193Y-71822238D01*
X124022193Y-71822238D02*
X124974574Y-71822238D01*
X133282238Y-1245050D02*
X135282238Y-578384D01*
X135282238Y-578384D02*
X133282238Y88282D01*
X134520333Y754949D02*
X134520333Y2278759D01*
X135187000Y3135901D02*
X135282238Y3421615D01*
X135282238Y3421615D02*
X135282238Y3897806D01*
X135282238Y3897806D02*
X135187000Y4088282D01*
X135187000Y4088282D02*
X135091761Y4183520D01*
X135091761Y4183520D02*
X134901285Y4278758D01*
X134901285Y4278758D02*
X134710809Y4278758D01*
X134710809Y4278758D02*
X134520333Y4183520D01*
X134520333Y4183520D02*
X134425095Y4088282D01*
X134425095Y4088282D02*
X134329857Y3897806D01*
X134329857Y3897806D02*
X134234619Y3516853D01*
X134234619Y3516853D02*
X134139380Y3326377D01*
X134139380Y3326377D02*
X134044142Y3231139D01*
X134044142Y3231139D02*
X133853666Y3135901D01*
X133853666Y3135901D02*
X133663190Y3135901D01*
X133663190Y3135901D02*
X133472714Y3231139D01*
X133472714Y3231139D02*
X133377476Y3326377D01*
X133377476Y3326377D02*
X133282238Y3516853D01*
X133282238Y3516853D02*
X133282238Y3993044D01*
X133282238Y3993044D02*
X133377476Y4278758D01*
X135091761Y6278758D02*
X135187000Y6183520D01*
X135187000Y6183520D02*
X135282238Y5897806D01*
X135282238Y5897806D02*
X135282238Y5707330D01*
X135282238Y5707330D02*
X135187000Y5421615D01*
X135187000Y5421615D02*
X134996523Y5231139D01*
X134996523Y5231139D02*
X134806047Y5135901D01*
X134806047Y5135901D02*
X134425095Y5040663D01*
X134425095Y5040663D02*
X134139380Y5040663D01*
X134139380Y5040663D02*
X133758428Y5135901D01*
X133758428Y5135901D02*
X133567952Y5231139D01*
X133567952Y5231139D02*
X133377476Y5421615D01*
X133377476Y5421615D02*
X133282238Y5707330D01*
X133282238Y5707330D02*
X133282238Y5897806D01*
X133282238Y5897806D02*
X133377476Y6183520D01*
X133377476Y6183520D02*
X133472714Y6278758D01*
X133282238Y7516853D02*
X133282238Y7897806D01*
X133282238Y7897806D02*
X133377476Y8088282D01*
X133377476Y8088282D02*
X133567952Y8278758D01*
X133567952Y8278758D02*
X133948904Y8373996D01*
X133948904Y8373996D02*
X134615571Y8373996D01*
X134615571Y8373996D02*
X134996523Y8278758D01*
X134996523Y8278758D02*
X135187000Y8088282D01*
X135187000Y8088282D02*
X135282238Y7897806D01*
X135282238Y7897806D02*
X135282238Y7516853D01*
X135282238Y7516853D02*
X135187000Y7326377D01*
X135187000Y7326377D02*
X134996523Y7135901D01*
X134996523Y7135901D02*
X134615571Y7040663D01*
X134615571Y7040663D02*
X133948904Y7040663D01*
X133948904Y7040663D02*
X133567952Y7135901D01*
X133567952Y7135901D02*
X133377476Y7326377D01*
X133377476Y7326377D02*
X133282238Y7516853D01*
X135282238Y10373996D02*
X134329857Y9707329D01*
X135282238Y9231139D02*
X133282238Y9231139D01*
X133282238Y9231139D02*
X133282238Y9993044D01*
X133282238Y9993044D02*
X133377476Y10183520D01*
X133377476Y10183520D02*
X133472714Y10278758D01*
X133472714Y10278758D02*
X133663190Y10373996D01*
X133663190Y10373996D02*
X133948904Y10373996D01*
X133948904Y10373996D02*
X134139380Y10278758D01*
X134139380Y10278758D02*
X134234619Y10183520D01*
X134234619Y10183520D02*
X134329857Y9993044D01*
X134329857Y9993044D02*
X134329857Y9231139D01*
X134234619Y11231139D02*
X134234619Y11897806D01*
X135282238Y12183520D02*
X135282238Y11231139D01*
X135282238Y11231139D02*
X133282238Y11231139D01*
X133282238Y11231139D02*
X133282238Y12183520D01*
X111546003Y-92642238D02*
X112212669Y-94642238D01*
X112212669Y-94642238D02*
X112879336Y-92642238D01*
X113546003Y-93880333D02*
X115069813Y-93880333D01*
X115926955Y-94547000D02*
X116212669Y-94642238D01*
X116212669Y-94642238D02*
X116688860Y-94642238D01*
X116688860Y-94642238D02*
X116879336Y-94547000D01*
X116879336Y-94547000D02*
X116974574Y-94451761D01*
X116974574Y-94451761D02*
X117069812Y-94261285D01*
X117069812Y-94261285D02*
X117069812Y-94070809D01*
X117069812Y-94070809D02*
X116974574Y-93880333D01*
X116974574Y-93880333D02*
X116879336Y-93785095D01*
X116879336Y-93785095D02*
X116688860Y-93689857D01*
X116688860Y-93689857D02*
X116307907Y-93594619D01*
X116307907Y-93594619D02*
X116117431Y-93499380D01*
X116117431Y-93499380D02*
X116022193Y-93404142D01*
X116022193Y-93404142D02*
X115926955Y-93213666D01*
X115926955Y-93213666D02*
X115926955Y-93023190D01*
X115926955Y-93023190D02*
X116022193Y-92832714D01*
X116022193Y-92832714D02*
X116117431Y-92737476D01*
X116117431Y-92737476D02*
X116307907Y-92642238D01*
X116307907Y-92642238D02*
X116784098Y-92642238D01*
X116784098Y-92642238D02*
X117069812Y-92737476D01*
X119069812Y-94451761D02*
X118974574Y-94547000D01*
X118974574Y-94547000D02*
X118688860Y-94642238D01*
X118688860Y-94642238D02*
X118498384Y-94642238D01*
X118498384Y-94642238D02*
X118212669Y-94547000D01*
X118212669Y-94547000D02*
X118022193Y-94356523D01*
X118022193Y-94356523D02*
X117926955Y-94166047D01*
X117926955Y-94166047D02*
X117831717Y-93785095D01*
X117831717Y-93785095D02*
X117831717Y-93499380D01*
X117831717Y-93499380D02*
X117926955Y-93118428D01*
X117926955Y-93118428D02*
X118022193Y-92927952D01*
X118022193Y-92927952D02*
X118212669Y-92737476D01*
X118212669Y-92737476D02*
X118498384Y-92642238D01*
X118498384Y-92642238D02*
X118688860Y-92642238D01*
X118688860Y-92642238D02*
X118974574Y-92737476D01*
X118974574Y-92737476D02*
X119069812Y-92832714D01*
X120307907Y-92642238D02*
X120688860Y-92642238D01*
X120688860Y-92642238D02*
X120879336Y-92737476D01*
X120879336Y-92737476D02*
X121069812Y-92927952D01*
X121069812Y-92927952D02*
X121165050Y-93308904D01*
X121165050Y-93308904D02*
X121165050Y-93975571D01*
X121165050Y-93975571D02*
X121069812Y-94356523D01*
X121069812Y-94356523D02*
X120879336Y-94547000D01*
X120879336Y-94547000D02*
X120688860Y-94642238D01*
X120688860Y-94642238D02*
X120307907Y-94642238D01*
X120307907Y-94642238D02*
X120117431Y-94547000D01*
X120117431Y-94547000D02*
X119926955Y-94356523D01*
X119926955Y-94356523D02*
X119831717Y-93975571D01*
X119831717Y-93975571D02*
X119831717Y-93308904D01*
X119831717Y-93308904D02*
X119926955Y-92927952D01*
X119926955Y-92927952D02*
X120117431Y-92737476D01*
X120117431Y-92737476D02*
X120307907Y-92642238D01*
X123165050Y-94642238D02*
X122498383Y-93689857D01*
X122022193Y-94642238D02*
X122022193Y-92642238D01*
X122022193Y-92642238D02*
X122784098Y-92642238D01*
X122784098Y-92642238D02*
X122974574Y-92737476D01*
X122974574Y-92737476D02*
X123069812Y-92832714D01*
X123069812Y-92832714D02*
X123165050Y-93023190D01*
X123165050Y-93023190D02*
X123165050Y-93308904D01*
X123165050Y-93308904D02*
X123069812Y-93499380D01*
X123069812Y-93499380D02*
X122974574Y-93594619D01*
X122974574Y-93594619D02*
X122784098Y-93689857D01*
X122784098Y-93689857D02*
X122022193Y-93689857D01*
X124022193Y-93594619D02*
X124688860Y-93594619D01*
X124974574Y-94642238D02*
X124022193Y-94642238D01*
X124022193Y-94642238D02*
X124022193Y-92642238D01*
X124022193Y-92642238D02*
X124974574Y-92642238D01*
X111546003Y-30182238D02*
X112212669Y-32182238D01*
X112212669Y-32182238D02*
X112879336Y-30182238D01*
X113546003Y-31420333D02*
X115069813Y-31420333D01*
X115926955Y-32087000D02*
X116212669Y-32182238D01*
X116212669Y-32182238D02*
X116688860Y-32182238D01*
X116688860Y-32182238D02*
X116879336Y-32087000D01*
X116879336Y-32087000D02*
X116974574Y-31991761D01*
X116974574Y-31991761D02*
X117069812Y-31801285D01*
X117069812Y-31801285D02*
X117069812Y-31610809D01*
X117069812Y-31610809D02*
X116974574Y-31420333D01*
X116974574Y-31420333D02*
X116879336Y-31325095D01*
X116879336Y-31325095D02*
X116688860Y-31229857D01*
X116688860Y-31229857D02*
X116307907Y-31134619D01*
X116307907Y-31134619D02*
X116117431Y-31039380D01*
X116117431Y-31039380D02*
X116022193Y-30944142D01*
X116022193Y-30944142D02*
X115926955Y-30753666D01*
X115926955Y-30753666D02*
X115926955Y-30563190D01*
X115926955Y-30563190D02*
X116022193Y-30372714D01*
X116022193Y-30372714D02*
X116117431Y-30277476D01*
X116117431Y-30277476D02*
X116307907Y-30182238D01*
X116307907Y-30182238D02*
X116784098Y-30182238D01*
X116784098Y-30182238D02*
X117069812Y-30277476D01*
X119069812Y-31991761D02*
X118974574Y-32087000D01*
X118974574Y-32087000D02*
X118688860Y-32182238D01*
X118688860Y-32182238D02*
X118498384Y-32182238D01*
X118498384Y-32182238D02*
X118212669Y-32087000D01*
X118212669Y-32087000D02*
X118022193Y-31896523D01*
X118022193Y-31896523D02*
X117926955Y-31706047D01*
X117926955Y-31706047D02*
X117831717Y-31325095D01*
X117831717Y-31325095D02*
X117831717Y-31039380D01*
X117831717Y-31039380D02*
X117926955Y-30658428D01*
X117926955Y-30658428D02*
X118022193Y-30467952D01*
X118022193Y-30467952D02*
X118212669Y-30277476D01*
X118212669Y-30277476D02*
X118498384Y-30182238D01*
X118498384Y-30182238D02*
X118688860Y-30182238D01*
X118688860Y-30182238D02*
X118974574Y-30277476D01*
X118974574Y-30277476D02*
X119069812Y-30372714D01*
X120307907Y-30182238D02*
X120688860Y-30182238D01*
X120688860Y-30182238D02*
X120879336Y-30277476D01*
X120879336Y-30277476D02*
X121069812Y-30467952D01*
X121069812Y-30467952D02*
X121165050Y-30848904D01*
X121165050Y-30848904D02*
X121165050Y-31515571D01*
X121165050Y-31515571D02*
X121069812Y-31896523D01*
X121069812Y-31896523D02*
X120879336Y-32087000D01*
X120879336Y-32087000D02*
X120688860Y-32182238D01*
X120688860Y-32182238D02*
X120307907Y-32182238D01*
X120307907Y-32182238D02*
X120117431Y-32087000D01*
X120117431Y-32087000D02*
X119926955Y-31896523D01*
X119926955Y-31896523D02*
X119831717Y-31515571D01*
X119831717Y-31515571D02*
X119831717Y-30848904D01*
X119831717Y-30848904D02*
X119926955Y-30467952D01*
X119926955Y-30467952D02*
X120117431Y-30277476D01*
X120117431Y-30277476D02*
X120307907Y-30182238D01*
X123165050Y-32182238D02*
X122498383Y-31229857D01*
X122022193Y-32182238D02*
X122022193Y-30182238D01*
X122022193Y-30182238D02*
X122784098Y-30182238D01*
X122784098Y-30182238D02*
X122974574Y-30277476D01*
X122974574Y-30277476D02*
X123069812Y-30372714D01*
X123069812Y-30372714D02*
X123165050Y-30563190D01*
X123165050Y-30563190D02*
X123165050Y-30848904D01*
X123165050Y-30848904D02*
X123069812Y-31039380D01*
X123069812Y-31039380D02*
X122974574Y-31134619D01*
X122974574Y-31134619D02*
X122784098Y-31229857D01*
X122784098Y-31229857D02*
X122022193Y-31229857D01*
X124022193Y-31134619D02*
X124688860Y-31134619D01*
X124974574Y-32182238D02*
X124022193Y-32182238D01*
X124022193Y-32182238D02*
X124022193Y-30182238D01*
X124022193Y-30182238D02*
X124974574Y-30182238D01*
X196242238Y-1245050D02*
X198242238Y-578384D01*
X198242238Y-578384D02*
X196242238Y88282D01*
X197480333Y754949D02*
X197480333Y2278759D01*
X198147000Y3135901D02*
X198242238Y3421615D01*
X198242238Y3421615D02*
X198242238Y3897806D01*
X198242238Y3897806D02*
X198147000Y4088282D01*
X198147000Y4088282D02*
X198051761Y4183520D01*
X198051761Y4183520D02*
X197861285Y4278758D01*
X197861285Y4278758D02*
X197670809Y4278758D01*
X197670809Y4278758D02*
X197480333Y4183520D01*
X197480333Y4183520D02*
X197385095Y4088282D01*
X197385095Y4088282D02*
X197289857Y3897806D01*
X197289857Y3897806D02*
X197194619Y3516853D01*
X197194619Y3516853D02*
X197099380Y3326377D01*
X197099380Y3326377D02*
X197004142Y3231139D01*
X197004142Y3231139D02*
X196813666Y3135901D01*
X196813666Y3135901D02*
X196623190Y3135901D01*
X196623190Y3135901D02*
X196432714Y3231139D01*
X196432714Y3231139D02*
X196337476Y3326377D01*
X196337476Y3326377D02*
X196242238Y3516853D01*
X196242238Y3516853D02*
X196242238Y3993044D01*
X196242238Y3993044D02*
X196337476Y4278758D01*
X198051761Y6278758D02*
X198147000Y6183520D01*
X198147000Y6183520D02*
X198242238Y5897806D01*
X198242238Y5897806D02*
X198242238Y5707330D01*
X198242238Y5707330D02*
X198147000Y5421615D01*
X198147000Y5421615D02*
X197956523Y5231139D01*
X197956523Y5231139D02*
X197766047Y5135901D01*
X197766047Y5135901D02*
X197385095Y5040663D01*
X197385095Y5040663D02*
X197099380Y5040663D01*
X197099380Y5040663D02*
X196718428Y5135901D01*
X196718428Y5135901D02*
X196527952Y5231139D01*
X196527952Y5231139D02*
X196337476Y5421615D01*
X196337476Y5421615D02*
X196242238Y5707330D01*
X196242238Y5707330D02*
X196242238Y5897806D01*
X196242238Y5897806D02*
X196337476Y6183520D01*
X196337476Y6183520D02*
X196432714Y6278758D01*
X196242238Y7516853D02*
X196242238Y7897806D01*
X196242238Y7897806D02*
X196337476Y8088282D01*
X196337476Y8088282D02*
X196527952Y8278758D01*
X196527952Y8278758D02*
X196908904Y8373996D01*
X196908904Y8373996D02*
X197575571Y8373996D01*
X197575571Y8373996D02*
X197956523Y8278758D01*
X197956523Y8278758D02*
X198147000Y8088282D01*
X198147000Y8088282D02*
X198242238Y7897806D01*
X198242238Y7897806D02*
X198242238Y7516853D01*
X198242238Y7516853D02*
X198147000Y7326377D01*
X198147000Y7326377D02*
X197956523Y7135901D01*
X197956523Y7135901D02*
X197575571Y7040663D01*
X197575571Y7040663D02*
X196908904Y7040663D01*
X196908904Y7040663D02*
X196527952Y7135901D01*
X196527952Y7135901D02*
X196337476Y7326377D01*
X196337476Y7326377D02*
X196242238Y7516853D01*
X198242238Y10373996D02*
X197289857Y9707329D01*
X198242238Y9231139D02*
X196242238Y9231139D01*
X196242238Y9231139D02*
X196242238Y9993044D01*
X196242238Y9993044D02*
X196337476Y10183520D01*
X196337476Y10183520D02*
X196432714Y10278758D01*
X196432714Y10278758D02*
X196623190Y10373996D01*
X196623190Y10373996D02*
X196908904Y10373996D01*
X196908904Y10373996D02*
X197099380Y10278758D01*
X197099380Y10278758D02*
X197194619Y10183520D01*
X197194619Y10183520D02*
X197289857Y9993044D01*
X197289857Y9993044D02*
X197289857Y9231139D01*
X197194619Y11231139D02*
X197194619Y11897806D01*
X198242238Y12183520D02*
X198242238Y11231139D01*
X198242238Y11231139D02*
X196242238Y11231139D01*
X196242238Y11231139D02*
X196242238Y12183520D01*
M02*
